<?xml version="1.0" encoding="utf-8"?>
<!-- Generator: Adobe Illustrator 27.3.1, SVG Export Plug-In . SVG Version: 6.00 Build 0)  -->
<svg version="1.1" id="Layer_1" xmlns="http://www.w3.org/2000/svg" xmlns:xlink="http://www.w3.org/1999/xlink" x="0px" y="0px"
	 viewBox="0 0 850 220" style="enable-background:new 0 0 850 220;" xml:space="preserve">
<style type="text/css">
	.st0{fill:#FFF7E2;stroke:#4B1E0D;stroke-width:4;stroke-miterlimit:10;}
	.st1{fill:#E1216F;stroke:#4B1E0D;stroke-width:4;stroke-miterlimit:10;}
	.st2{fill:#F5CD78;stroke:#4A2011;stroke-width:4;stroke-miterlimit:10;}
	.st3{fill:#FFF7E2;}
	.st4{fill:#D9B060;stroke:#4A2011;stroke-width:3;stroke-miterlimit:10;}
	.st5{fill:#FFD997;}
</style>
<g>
	<path class="st0" d="M71.2,53c0,14.9-10.6,17-18.8,17s-18.8-6.1-18.8-21s16.2-26.8,26-22.3C67,30.1,71.2,38.1,71.2,53z"/>
	<path class="st0" d="M122,42.1c0,14.9-10.6,17-18.8,17s-18.8-6.1-18.8-21s16.2-26.8,26-22.3C117.8,19.2,122,27.2,122,42.1z"/>
	<path class="st0" d="M173.5,51.8c0,14.9-10.6,17-18.8,17s-18.8-6.1-18.8-21s16.1-26.8,26-22.3C169.3,28.9,173.5,36.8,173.5,51.8z"
		/>
	<path class="st1" d="M100.9,42.4c0,16.5-11.8,18.7-20.8,18.7S59.2,54.5,59.2,38S77.1,8.3,88,13.4C96.2,17.2,100.9,26,100.9,42.4z"
		/>
	<path class="st1" d="M54.9,51.2c7.5,14.7-7.9,18-16,22.1c-8,4.1-15.7,7.6-23.1-7.1S11.1,38.5,24,33.7
		C32.5,30.5,47.4,36.5,54.9,51.2z"/>
	<path class="st1" d="M151.2,37.8c0,16.5-18.1,19.5-27.1,19.5s-16.2-6.1-16.2-22.6s14.4-29.3,25.3-24.3
		C141.3,14.2,151.2,21.3,151.2,37.8z"/>
	<path class="st1" d="M187.7,70.5c-10.1,13.1-21,7.3-28.9,2.8s-12.5-12.2-4.3-26.5c8.1-14.3,30.7-12.8,37.7-3
		C197.5,51.1,196.3,59.3,187.7,70.5z"/>
	<g>
		<g>
			<ellipse class="st2" cx="103.5" cy="188.6" rx="22" ry="20.1"/>
		</g>
	</g>
	<g>
		<g>
			<path class="st2" d="M69.2,163.9c-3.3,0-6.6-1.4-8.9-4.2c-4-4.9-3.3-12.1,1.6-16.2c23.2-19.1,59.6-19.2,83.1-0.4
				c4.9,4,5.7,11.2,1.8,16.2s-11.2,5.7-16.2,1.8c-14.8-11.8-39.5-11.7-54.1,0.3C74.3,163.1,71.8,163.9,69.2,163.9z"/>
		</g>
	</g>
	<g>
		<g>
			<path class="st2" d="M157.4,127c-2.6,0-5.1-0.8-7.2-2.6c-25.8-20.9-67.7-20.9-93.5,0c-4.9,4-12.2,3.2-16.2-1.7
				c-4-4.9-3.2-12.2,1.7-16.2c16.5-13.4,38.2-20.7,61.2-20.7s44.8,7.4,61.2,20.7c4.9,4,5.7,11.2,1.7,16.2
				C164.1,125.6,160.8,127,157.4,127z"/>
		</g>
	</g>
	<ellipse transform="matrix(0.866 -0.5 0.5 0.866 -23.7452 16.5772)" class="st3" cx="19.1" cy="52.6" rx="0.7" ry="1.5"/>
	<ellipse transform="matrix(0.866 -0.5 0.5 0.866 -19.1623 17.7434)" class="st3" cx="23.5" cy="44.6" rx="0.7" ry="1.5"/>
	<ellipse transform="matrix(0.866 -0.5 0.5 0.866 -17.1568 22.7091)" class="st3" cx="33.8" cy="43.4" rx="0.7" ry="1.5"/>
	<ellipse transform="matrix(0.866 -0.5 0.5 0.866 -18.176 28.5633)" class="st3" cx="44.2" cy="48.2" rx="0.7" ry="1.5"/>
	<ellipse transform="matrix(0.866 -0.5 0.5 0.866 -21.4813 22.9318)" class="st3" cx="32" cy="51.5" rx="0.7" ry="1.5"/>
	<ellipse transform="matrix(0.866 -0.5 0.5 0.866 -25.8258 20.8386)" class="st3" cx="26" cy="58.6" rx="0.7" ry="1.5"/>
	<ellipse transform="matrix(0.866 -0.5 0.5 0.866 -29.685 19.1375)" class="st3" cx="20.9" cy="65" rx="0.7" ry="1.5"/>
	<ellipse transform="matrix(0.866 -0.5 0.5 0.866 -23.1211 27.5669)" class="st3" cx="39.9" cy="56.9" rx="0.7" ry="1.5"/>
	<ellipse transform="matrix(0.5 -0.866 0.866 0.5 19.2661 77.0518)" class="st3" cx="76.4" cy="21.8" rx="1.5" ry="0.7"/>
	<ellipse transform="matrix(0.5 -0.866 0.866 0.5 23.4353 85.5358)" class="st3" cx="85.8" cy="22.5" rx="1.5" ry="0.7"/>
	<ellipse transform="matrix(0.5 -0.866 0.866 0.5 21.2189 94.2986)" class="st3" cx="92.3" cy="28.8" rx="1.5" ry="0.7"/>
	<ellipse transform="matrix(0.5 -0.866 0.866 0.5 7.0693 72.8638)" class="st3" cx="66.6" cy="30.3" rx="1.5" ry="0.7"/>
	<ellipse transform="matrix(0.5 -0.866 0.866 0.5 11.5414 82.7078)" class="st3" cx="77.4" cy="31.4" rx="1.5" ry="0.7"/>
	<ellipse transform="matrix(0.5 -0.866 0.866 0.5 8.522 92.9937)" class="st3" cx="84.8" cy="39.1" rx="1.5" ry="0.7"/>
	<ellipse transform="matrix(0.5 -0.866 0.866 0.5 12.6216 102.8921)" class="st3" cx="95.4" cy="40.5" rx="1.5" ry="0.7"/>
	<ellipse transform="matrix(0.5 -0.866 0.866 0.5 -0.6645 82.2502)" class="st3" cx="70.9" cy="41.7" rx="1.5" ry="0.7"/>
	<ellipse transform="matrix(0.9942 -0.1077 0.1077 0.9942 -1.5622 12.9511)" class="st3" cx="119.1" cy="20.9" rx="0.8" ry="1.5"/>
	<ellipse transform="matrix(0.9942 -0.1077 0.1077 0.9942 -1.108 13.9386)" class="st3" cx="128.5" cy="17.2" rx="0.8" ry="1.5"/>
	<ellipse transform="matrix(0.9942 -0.1077 0.1077 0.9942 -1.4877 15.1668)" class="st3" cx="139.7" cy="21.4" rx="0.8" ry="1.5"/>
	<ellipse transform="matrix(0.9942 -0.1077 0.1077 0.9942 -2.7092 13.1103)" class="st3" cx="120" cy="31.6" rx="0.8" ry="1.5"/>
	<ellipse transform="matrix(0.9942 -0.1077 0.1077 0.9942 -2.8765 14.6131)" class="st3" cx="133.9" cy="33.9" rx="0.8" ry="1.5"/>
	<ellipse transform="matrix(0.9942 -0.1077 0.1077 0.9942 -3.1884 15.8376)" class="st3" cx="145" cy="37.4" rx="0.8" ry="1.5"/>
	<ellipse transform="matrix(0.8474 -0.5309 0.5309 0.8474 0.8639 99.408)" class="st3" cx="173.4" cy="48.2" rx="1.5" ry="0.7"/>
	<ellipse transform="matrix(0.8474 -0.5309 0.5309 0.8474 -1.2327 91.9633)" class="st3" cx="159.4" cy="48.1" rx="1.5" ry="0.7"/>
	<g>
		<g>
			<path class="st2" d="M183,92.3c-2.6,0-5.1-0.8-7.2-2.6C135.9,57.4,71,57.4,31.2,89.7C26.2,93.7,19,93,15,88.1
				c-4-4.9-3.2-12.2,1.7-16.2C40,53,70.8,42.6,103.4,42.6s63.5,10.4,86.8,29.3c4.9,4,5.7,11.2,1.7,16.2
				C189.6,90.8,186.3,92.3,183,92.3z"/>
		</g>
	</g>
	<g>
		<g>
			<path class="st4" d="M119.1,202.8c-6.6,6.1-16.4,7.4-24.4,4.2c-4.6-8.9-8.1-18-10.8-27.3c1-1.9,2.4-3.8,4.2-5.4
				c8.6-7.9,22.5-7.9,31.1,0C127.7,182.2,127.7,195,119.1,202.8z"/>
			<path class="st4" d="M146.8,159.3c-4,4.9-11.2,5.7-16.2,1.8c-13.9-11.2-36.7-11.7-51.5-1.7c-1.4-8.3-2.2-16.6-2.5-24.7
				c22-9.5,49.5-6.7,68.4,8.5C150,147.1,150.8,154.3,146.8,159.3z"/>
			<path class="st4" d="M166.5,122.8c-2.3,2.8-5.6,4.2-8.9,4.2c-2.5,0-5.1-0.9-7.2-2.6c-19.8-16.1-49.1-19.8-73.4-11.2
				c0.6-8.7,1.6-17,3-24.7c7.6-1.8,15.5-2.7,23.6-2.7c23,0,44.8,7.4,61.2,20.8C169.7,110.6,170.5,117.9,166.5,122.8z"/>
			<path class="st4" d="M192,88.1c-2.9,2.1-5.6,4.2-8.9,4.2c-2.5,0-5.1-0.8-7.2-2.6c-24.6-20-58.7-27.6-90.5-23
				c2.1-6.7,8.8-19.5,14.2-27.9c3.4-5.2,9.5-8.1,15.7-7.3c29.6,3.9,58.6,25.1,75.2,40.3C195.8,76.1,198.4,83.4,192,88.1z"/>
		</g>
	</g>
	<ellipse transform="matrix(0.7071 -0.7071 0.7071 0.7071 -47.4788 38.6278)" class="st5" cx="22.9" cy="76.6" rx="0.7" ry="0.8"/>
	<ellipse transform="matrix(0.7071 -0.7071 0.7071 0.7071 -53.702 41.9865)" class="st5" cx="23.8" cy="85.8" rx="0.7" ry="0.8"/>
	<ellipse transform="matrix(0.7071 -0.7071 0.7071 0.7071 -44.379 49.0613)" class="st5" cx="37" cy="78.1" rx="0.7" ry="0.8"/>
	<ellipse transform="matrix(0.7071 -0.7071 0.7071 0.7071 -42.3618 43.5082)" class="st5" cx="31.3" cy="72.9" rx="0.7" ry="0.8"/>
	<ellipse transform="matrix(0.7071 -0.7071 0.7071 0.7071 -36.1714 43.6339)" class="st5" cx="34.6" cy="65.5" rx="0.7" ry="0.8"/>
	<ellipse transform="matrix(0.7071 -0.7071 0.7071 0.7071 -34.9743 55.5514)" class="st5" cx="49.6" cy="70" rx="0.7" ry="0.8"/>
	<ellipse transform="matrix(0.7071 -0.7071 0.7071 0.7071 -36.1587 50.0246)" class="st5" cx="42.3" cy="68.7" rx="0.7" ry="0.8"/>
	<ellipse transform="matrix(0.7071 -0.7071 0.7071 0.7071 -22.912 57.0107)" class="st5" cx="57.4" cy="56.2" rx="0.7" ry="0.8"/>
	<ellipse transform="matrix(0.7071 -0.7071 0.7071 0.7071 -29.8184 49.479)" class="st5" cx="44.8" cy="60.7" rx="0.7" ry="0.8"/>
	<ellipse transform="matrix(0.7071 -0.7071 0.7071 0.7071 -22.1769 70.3061)" class="st5" cx="73.8" cy="61.9" rx="0.7" ry="0.8"/>
	<ellipse transform="matrix(0.7071 -0.7071 0.7071 0.7071 -0.5888 94.5033)" class="st5" cx="113.8" cy="48" rx="0.7" ry="0.8"/>
	<ellipse transform="matrix(0.7071 -0.7071 0.7071 0.7071 6.2743 103.2418)" class="st5" cx="127.8" cy="44" rx="0.7" ry="0.8"/>
	<ellipse transform="matrix(0.7071 -0.7071 0.7071 0.7071 -1.0196 104.639)" class="st5" cx="125.8" cy="53.6" rx="0.7" ry="0.8"/>
	<ellipse transform="matrix(0.7071 -0.7071 0.7071 0.7071 -5.4831 106.721)" class="st5" cx="126.1" cy="60" rx="0.7" ry="0.8"/>
	<ellipse transform="matrix(0.7071 -0.7071 0.7071 0.7071 4.9239 114.7919)" class="st5" cx="141" cy="51.5" rx="0.7" ry="0.8"/>
	<ellipse transform="matrix(0.7071 -0.7071 0.7071 0.7071 -2.6507 115.4999)" class="st5" cx="138.1" cy="60.9" rx="0.7" ry="0.8"/>
	<ellipse transform="matrix(0.7071 -0.7071 0.7071 0.7071 7.2909 126.6639)" class="st5" cx="156.5" cy="54.5" rx="0.7" ry="0.8"/>
	<ellipse transform="matrix(0.7071 -0.7071 0.7071 0.7071 1.7712 122.4119)" class="st5" cx="148.6" cy="59.1" rx="0.7" ry="0.8"/>
	<ellipse transform="matrix(0.7071 -0.7071 0.7071 0.7071 -3.4896 127.5971)" class="st5" cx="152.3" cy="68" rx="0.7" ry="0.8"/>
	<ellipse transform="matrix(0.7071 -0.7071 0.7071 0.7071 3.7942 137.0826)" class="st5" cx="167.4" cy="64" rx="0.7" ry="0.8"/>
	<ellipse transform="matrix(0.7071 -0.7071 0.7071 0.7071 -4.3006 141.0165)" class="st5" cx="168.1" cy="75.7" rx="0.7" ry="0.8"/>
	<ellipse transform="matrix(0.7071 -0.7071 0.7071 0.7071 -0.3312 137.1742)" class="st5" cx="165.4" cy="69" rx="0.7" ry="0.8"/>
	<ellipse transform="matrix(0.7071 -0.7071 0.7071 0.7071 -22.3832 63.7987)" class="st5" cx="65.8" cy="58.9" rx="0.7" ry="0.8"/>
	<ellipse transform="matrix(0.7071 -0.7071 0.7071 0.7071 -14.9261 64.4675)" class="st5" cx="70.4" cy="50.3" rx="0.7" ry="0.8"/>
	<ellipse transform="matrix(0.7071 -0.7071 0.7071 0.7071 -17.3233 69.8597)" class="st5" cx="75.7" cy="55.8" rx="0.7" ry="0.8"/>
	<ellipse transform="matrix(0.7071 -0.7071 0.7071 0.7071 -8.7214 88.4357)" class="st5" cx="102.4" cy="54.7" rx="0.7" ry="0.8"/>
	<ellipse transform="matrix(0.7071 -0.7071 0.7071 0.7071 4.0717 89.5534)" class="st5" cx="110.1" cy="39.9" rx="0.7" ry="0.8"/>
	<ellipse transform="matrix(0.7071 -0.7071 0.7071 0.7071 -10.5638 73.8861)" class="st5" cx="83.9" cy="49.7" rx="0.7" ry="0.8"/>
	<ellipse transform="matrix(0.7071 -0.7071 0.7071 0.7071 -20.7549 75.972)" class="st5" cx="81.3" cy="63" rx="0.7" ry="0.8"/>
	<ellipse transform="matrix(0.7071 -0.7071 0.7071 0.7071 -8.5668 97.4635)" class="st5" cx="113.4" cy="59.1" rx="0.7" ry="0.8"/>
	<ellipse transform="matrix(0.7071 -0.7071 0.7071 0.7071 -28.7584 63.4861)" class="st5" cx="62.3" cy="66.5" rx="0.7" ry="0.8"/>
	<ellipse transform="matrix(0.7071 -0.7071 0.7071 0.7071 -27.6262 58.6778)" class="st5" cx="57" cy="62.7" rx="0.7" ry="0.8"/>
	<ellipse transform="matrix(0.8236 -0.5671 0.5671 0.8236 -54.0911 46.4878)" class="st5" cx="47.7" cy="110.2" rx="0.7" ry="0.8"/>
	<ellipse transform="matrix(0.8236 -0.5671 0.5671 0.8236 -59.4404 47.689)" class="st5" cx="47" cy="119.4" rx="0.7" ry="0.8"/>
	<ellipse transform="matrix(0.8236 -0.5671 0.5671 0.8236 -53.9616 54.9318)" class="st5" cx="61.3" cy="114.2" rx="0.7" ry="0.8"/>
	<ellipse transform="matrix(0.8236 -0.5671 0.5671 0.8236 -51.2921 51.2096)" class="st5" cx="56.7" cy="108.1" rx="0.7" ry="0.8"/>
	<ellipse transform="matrix(0.8236 -0.5671 0.5671 0.8236 -46.6927 52.6004)" class="st5" cx="61.2" cy="101.4" rx="0.7" ry="0.8"/>
	<ellipse transform="matrix(0.8236 -0.5671 0.5671 0.8236 -48.9568 60.7436)" class="st5" cx="73.2" cy="109.1" rx="0.7" ry="0.8"/>
	<ellipse transform="matrix(0.8236 -0.5671 0.5671 0.8236 -48.0263 57.3767)" class="st5" cx="68.2" cy="105.9" rx="0.7" ry="0.8"/>
	<ellipse transform="matrix(0.8236 -0.5671 0.5671 0.8236 -39.5862 65.3733)" class="st5" cx="85.3" cy="96.3" rx="0.7" ry="0.8"/>
	<ellipse transform="matrix(0.8236 -0.5671 0.5671 0.8236 -43.1745 58.3006)" class="st5" cx="72.1" cy="98.6" rx="0.7" ry="0.8"/>
	
		<ellipse transform="matrix(0.8236 -0.5671 0.5671 0.8236 -41.5159 76.7535)" class="st5" cx="102.6" cy="105.1" rx="0.7" ry="0.8"/>
	<ellipse transform="matrix(0.8236 -0.5671 0.5671 0.8236 -35.1671 68.8886)" class="st5" cx="93.2" cy="91" rx="0.7" ry="0.8"/>
	<ellipse transform="matrix(0.8236 -0.5671 0.5671 0.8236 -32.166 76.731)" class="st5" cx="107.3" cy="90.1" rx="0.7" ry="0.8"/>
	
		<ellipse transform="matrix(0.8236 -0.5671 0.5671 0.8236 -38.7037 84.9283)" class="st5" cx="117.2" cy="104.7" rx="0.7" ry="0.8"/>
	<ellipse transform="matrix(0.8236 -0.5671 0.5671 0.8236 -38.221 94.0014)" class="st5" cx="132" cy="108.5" rx="0.7" ry="0.8"/>
	<ellipse transform="matrix(0.8236 -0.5671 0.5671 0.8236 -35.3382 81.6249)" class="st5" cx="113.6" cy="97.6" rx="0.7" ry="0.8"/>
	
		<ellipse transform="matrix(0.8236 -0.5671 0.5671 0.8236 -38.6729 106.1443)" class="st5" cx="151.3" cy="115.3" rx="0.7" ry="0.8"/>
	<ellipse transform="matrix(0.8236 -0.5671 0.5671 0.8236 -32.0395 98.9389)" class="st5" cx="143.1" cy="101" rx="0.7" ry="0.8"/>
	
		<ellipse transform="matrix(0.8236 -0.5671 0.5671 0.8236 -38.1808 100.1523)" class="st5" cx="141.9" cy="111.5" rx="0.7" ry="0.8"/>
	<ellipse transform="matrix(0.8236 -0.5671 0.5671 0.8236 -35.7497 111.037)" class="st5" cx="160.6" cy="113" rx="0.7" ry="0.8"/>
	<ellipse transform="matrix(0.8236 -0.5671 0.5671 0.8236 -32.0413 89.9899)" class="st5" cx="128.7" cy="96.5" rx="0.7" ry="0.8"/>
	<ellipse transform="matrix(0.8236 -0.5671 0.5671 0.8236 -38.8912 72.9946)" class="st5" cx="97.9" cy="99" rx="0.7" ry="0.8"/>
	<ellipse transform="matrix(0.8236 -0.5671 0.5671 0.8236 -45.3055 66.2062)" class="st5" cx="83.8" cy="105.9" rx="0.7" ry="0.8"/>
	<ellipse transform="matrix(0.8236 -0.5671 0.5671 0.8236 -70.9626 64.3347)" class="st5" cx="68" cy="146.3" rx="0.7" ry="0.8"/>
	<ellipse transform="matrix(0.8236 -0.5671 0.5671 0.8236 -76.3155 65.5406)" class="st5" cx="67.2" cy="155.5" rx="0.7" ry="0.8"/>
	<ellipse transform="matrix(0.8236 -0.5671 0.5671 0.8236 -70.8284 72.7823)" class="st5" cx="81.6" cy="150.3" rx="0.7" ry="0.8"/>
	<ellipse transform="matrix(0.8236 -0.5671 0.5671 0.8236 -86.8442 84.4499)" class="st5" cx="92.4" cy="181.9" rx="0.7" ry="0.8"/>
	<ellipse transform="matrix(0.8236 -0.5671 0.5671 0.8236 -94.0147 82.4048)" class="st5" cx="85.5" cy="192.4" rx="0.7" ry="0.8"/>
	<ellipse transform="matrix(0.8236 -0.5671 0.5671 0.8236 -73.0041 68.2305)" class="st5" cx="73.2" cy="151.5" rx="0.7" ry="0.8"/>
	<ellipse transform="matrix(0.8236 -0.5671 0.5671 0.8236 -63.5642 70.4474)" class="st5" cx="81.5" cy="137.4" rx="0.7" ry="0.8"/>
	<ellipse transform="matrix(0.8236 -0.5671 0.5671 0.8236 -65.1642 79.6023)" class="st5" cx="95.4" cy="144.6" rx="0.7" ry="0.8"/>
	<ellipse transform="matrix(0.8236 -0.5671 0.5671 0.8236 -64.8979 75.2237)" class="st5" cx="88.5" cy="142" rx="0.7" ry="0.8"/>
	
		<ellipse transform="matrix(0.8236 -0.5671 0.5671 0.8236 -56.4577 83.2202)" class="st5" cx="105.6" cy="132.4" rx="0.7" ry="0.8"/>
	<ellipse transform="matrix(0.8236 -0.5671 0.5671 0.8236 -60.0413 76.1512)" class="st5" cx="92.4" cy="134.6" rx="0.7" ry="0.8"/>
	
		<ellipse transform="matrix(0.8236 -0.5671 0.5671 0.8236 -60.0035 91.6323)" class="st5" cx="117.3" cy="142.3" rx="0.7" ry="0.8"/>
	
		<ellipse transform="matrix(0.8236 -0.5671 0.5671 0.8236 -80.7181 94.1863)" class="st5" cx="111.1" cy="176.9" rx="0.7" ry="0.8"/>
	
		<ellipse transform="matrix(0.8236 -0.5671 0.5671 0.8236 -57.4919 88.4034)" class="st5" cx="113.4" cy="136.6" rx="0.7" ry="0.8"/>
	
		<ellipse transform="matrix(0.8236 -0.5671 0.5671 0.8236 -64.8001 103.1292)" class="st5" cx="133.4" cy="155.7" rx="0.7" ry="0.8"/>
	
		<ellipse transform="matrix(0.8236 -0.5671 0.5671 0.8236 -87.3115 100.7466)" class="st5" cx="118.3" cy="190.8" rx="0.7" ry="0.8"/>
	
		<ellipse transform="matrix(0.8236 -0.5671 0.5671 0.8236 -83.8866 96.5501)" class="st5" cx="113.3" cy="183.1" rx="0.7" ry="0.8"/>
	<ellipse transform="matrix(0.8236 -0.5671 0.5671 0.8236 -94.9305 92.598)" class="st5" cx="101.4" cy="198.9" rx="0.7" ry="0.8"/>
	<ellipse transform="matrix(0.8236 -0.5671 0.5671 0.8236 -93.0837 88.199)" class="st5" cx="95.3" cy="193.8" rx="0.7" ry="0.8"/>
	
		<ellipse transform="matrix(0.8236 -0.5671 0.5671 0.8236 -64.0848 95.2525)" class="st5" cx="121.1" cy="150.7" rx="0.7" ry="0.8"/>
	<ellipse transform="matrix(0.8236 -0.5671 0.5671 0.8236 -54.9795 93.992)" class="st5" cx="123.6" cy="135.4" rx="0.7" ry="0.8"/>
	
		<ellipse transform="matrix(0.8236 -0.5671 0.5671 0.8236 -60.335 104.0882)" class="st5" cx="137.2" cy="149.1" rx="0.7" ry="0.8"/>
	<ellipse transform="matrix(0.8236 -0.5671 0.5671 0.8236 -88.521 89.7335)" class="st5" cx="100" cy="187.2" rx="0.7" ry="0.8"/>
	
		<ellipse transform="matrix(0.8236 -0.5671 0.5671 0.8236 -95.2704 99.0465)" class="st5" cx="111.6" cy="202.7" rx="0.7" ry="0.8"/>
	
		<ellipse transform="matrix(0.8236 -0.5671 0.5671 0.8236 -61.6761 109.2819)" class="st5" cx="144.9" cy="153.8" rx="0.7" ry="0.8"/>
	
		<ellipse transform="matrix(0.8236 -0.5671 0.5671 0.8236 -57.9823 99.3571)" class="st5" cx="130.8" cy="142.9" rx="0.7" ry="0.8"/>
	
		<ellipse transform="matrix(0.8236 -0.5671 0.5671 0.8236 -62.1889 86.8304)" class="st5" cx="108.5" cy="143.4" rx="0.7" ry="0.8"/>
	
		<ellipse transform="matrix(0.8236 -0.5671 0.5671 0.8236 -81.9023 88.1133)" class="st5" cx="100.7" cy="175.7" rx="0.7" ry="0.8"/>
	
		<ellipse transform="matrix(0.8236 -0.5671 0.5671 0.8236 -90.1252 96.3155)" class="st5" cx="109.8" cy="193.1" rx="0.7" ry="0.8"/>
	<ellipse transform="matrix(0.8236 -0.5671 0.5671 0.8236 -60.3348 83.4742)" class="st5" cx="104" cy="138.7" rx="0.7" ry="0.8"/>
</g>
<g>
	<path class="st2" d="M318.3,139.2c-3.5,3-7.5,5.4-11.8,7c-4.4,1.6-8.9,2.4-13.6,2.4c-3.6,0-7.1-0.5-10.4-1.4
		c-3.3-0.9-6.5-2.3-9.4-4c-2.9-1.7-5.6-3.8-8-6.2c-2.4-2.4-4.5-5.1-6.2-8c-1.7-2.9-3-6-4-9.4c-0.9-3.3-1.4-6.8-1.4-10.4
		c0-3.6,0.5-7.1,1.4-10.4c0.9-3.3,2.3-6.5,4-9.4c1.7-2.9,3.8-5.6,6.2-8c2.4-2.4,5.1-4.5,8-6.2c2.9-1.7,6-3,9.4-4
		c3.3-0.9,6.8-1.4,10.4-1.4c4.7,0,9.2,0.8,13.6,2.4c4.4,1.6,8.3,3.9,11.8,7l-8,13.2c-2.2-2.4-4.8-4.2-7.9-5.5
		c-3-1.3-6.2-1.9-9.5-1.9c-3.4,0-6.5,0.6-9.4,1.9s-5.5,3-7.7,5.2c-2.2,2.2-3.9,4.7-5.2,7.7s-1.9,6.1-1.9,9.4c0,3.3,0.6,6.4,1.9,9.3
		s3,5.5,5.2,7.6s4.7,3.9,7.7,5.2s6.1,1.9,9.4,1.9c3.3,0,6.5-0.6,9.5-1.9c3-1.3,5.7-3.1,7.9-5.5L318.3,139.2z"/>
	<path class="st2" d="M348.2,147h-14.4V90.4h3.5l4.8,6.7c2.3-2.1,5-3.7,7.9-4.9c3-1.1,6-1.7,9.2-1.7h12.7v14.4h-12.7
		c-1.5,0-2.9,0.3-4.3,0.8c-1.3,0.6-2.5,1.3-3.5,2.3c-1,1-1.8,2.2-2.3,3.5c-0.6,1.3-0.8,2.8-0.8,4.3V147z"/>
	<path class="st2" d="M408.2,133.1c0.6,0.2,1.1,0.3,1.7,0.3c0.6,0.1,1.1,0.1,1.7,0.1c1.4,0,2.8-0.2,4.1-0.6c1.3-0.4,2.5-0.9,3.7-1.7
		c1.1-0.7,2.2-1.6,3.1-2.6c0.9-1,1.6-2.2,2.2-3.5l10.6,10.6c-1.3,1.9-2.9,3.6-4.6,5.1c-1.7,1.5-3.6,2.8-5.7,3.9
		c-2,1.1-4.2,1.9-6.4,2.4c-2.2,0.5-4.5,0.8-6.9,0.8c-4,0-7.7-0.7-11.2-2.2c-3.5-1.5-6.6-3.5-9.2-6.2c-2.6-2.6-4.7-5.8-6.2-9.4
		c-1.5-3.7-2.3-7.7-2.3-12c0-4.5,0.8-8.6,2.3-12.3c1.5-3.7,3.6-6.9,6.2-9.5c2.6-2.6,5.7-4.6,9.2-6.1c3.5-1.4,7.3-2.2,11.2-2.2
		c2.4,0,4.7,0.3,6.9,0.8c2.3,0.6,4.4,1.4,6.4,2.4c2,1.1,3.9,2.4,5.7,3.9c1.8,1.5,3.3,3.3,4.7,5.2L408.2,133.1z M415.6,103.4
		c-0.7-0.2-1.3-0.4-2-0.5c-0.7-0.1-1.3-0.1-2-0.1c-2,0-3.8,0.4-5.6,1.1c-1.7,0.7-3.3,1.8-4.5,3.1c-1.3,1.3-2.3,3-3,4.8
		c-0.7,1.9-1.1,4-1.1,6.4c0,0.5,0,1.1,0.1,1.8s0.1,1.3,0.3,2c0.1,0.7,0.3,1.3,0.4,2c0.2,0.6,0.4,1.2,0.7,1.7L415.6,103.4z"/>
	<path class="st2" d="M465.2,168.6h-14.5V90.4h3.5l5.8,6.8c1.3-1.2,2.7-2.4,4.3-3.5c1.6-1.1,3.2-2,4.8-2.8c1.7-0.8,3.4-1.4,5.2-1.9
		c1.8-0.5,3.6-0.7,5.4-0.7c4,0,7.7,0.7,11.2,2.1c3.5,1.4,6.6,3.4,9.2,6.1c2.6,2.6,4.7,5.8,6.2,9.4c1.5,3.7,2.3,7.8,2.3,12.2
		c0,4.7-0.8,8.8-2.3,12.6c-1.5,3.7-3.6,6.9-6.2,9.5c-2.6,2.6-5.7,4.6-9.2,6c-3.5,1.4-7.3,2.1-11.2,2.1c-1.3,0-2.5-0.1-3.8-0.4
		c-1.3-0.3-2.5-0.7-3.7-1.1c-1.2-0.5-2.4-1-3.6-1.6c-1.2-0.6-2.3-1.2-3.4-1.9V168.6z M494.1,118.2c0-2.4-0.4-4.5-1.1-6.5
		c-0.8-1.9-1.8-3.5-3.1-4.8c-1.3-1.3-2.8-2.3-4.6-3c-1.8-0.7-3.6-1.1-5.6-1.1c-2,0-3.8,0.4-5.6,1.1c-1.7,0.7-3.3,1.7-4.6,3
		c-1.3,1.3-2.3,2.9-3.1,4.8c-0.8,1.9-1.1,4.1-1.1,6.5c0,2.3,0.4,4.4,1.1,6.3c0.8,1.9,1.8,3.5,3.1,4.9c1.3,1.3,2.8,2.4,4.6,3.1
		c1.7,0.7,3.6,1.1,5.6,1.1c2,0,3.8-0.4,5.6-1.1s3.3-1.8,4.6-3.1c1.3-1.3,2.3-3,3.1-4.9C493.7,122.6,494.1,120.5,494.1,118.2z"/>
	<path class="st2" d="M547.2,133.1c0.6,0.2,1.1,0.3,1.7,0.3c0.6,0.1,1.1,0.1,1.7,0.1c1.4,0,2.8-0.2,4.1-0.6c1.3-0.4,2.5-0.9,3.7-1.7
		c1.1-0.7,2.2-1.6,3.1-2.6c0.9-1,1.6-2.2,2.2-3.5l10.6,10.6c-1.3,1.9-2.9,3.6-4.6,5.1c-1.7,1.5-3.6,2.8-5.7,3.9
		c-2,1.1-4.2,1.9-6.4,2.4c-2.2,0.5-4.5,0.8-6.9,0.8c-4,0-7.7-0.7-11.2-2.2c-3.5-1.5-6.6-3.5-9.2-6.2c-2.6-2.6-4.7-5.8-6.2-9.4
		c-1.5-3.7-2.3-7.7-2.3-12c0-4.5,0.8-8.6,2.3-12.3c1.5-3.7,3.6-6.9,6.2-9.5c2.6-2.6,5.7-4.6,9.2-6.1c3.5-1.4,7.3-2.2,11.2-2.2
		c2.4,0,4.7,0.3,6.9,0.8c2.3,0.6,4.4,1.4,6.4,2.4c2,1.1,3.9,2.4,5.7,3.9c1.8,1.5,3.3,3.3,4.7,5.2L547.2,133.1z M554.6,103.4
		c-0.7-0.2-1.3-0.4-2-0.5c-0.7-0.1-1.3-0.1-2-0.1c-2,0-3.8,0.4-5.6,1.1c-1.7,0.7-3.3,1.8-4.5,3.1c-1.3,1.3-2.3,3-3,4.8
		c-0.7,1.9-1.1,4-1.1,6.4c0,0.5,0,1.1,0.1,1.8s0.1,1.3,0.3,2c0.1,0.7,0.3,1.3,0.4,2c0.2,0.6,0.4,1.2,0.7,1.7L554.6,103.4z"/>
	<path class="st1" d="M652,109.1c0,3.5-0.5,6.9-1.3,10.1c-0.9,3.2-2.2,6.2-3.8,9c-1.7,2.8-3.6,5.4-5.9,7.7c-2.3,2.3-4.8,4.3-7.7,6
		c-2.8,1.7-5.8,2.9-9.1,3.8s-6.6,1.3-10.1,1.3h-22.9V71.2h22.9c3.5,0,6.9,0.4,10.1,1.3c3.2,0.9,6.2,2.2,9.1,3.8
		c2.8,1.7,5.4,3.6,7.7,6c2.3,2.3,4.3,4.9,5.9,7.7c1.7,2.8,2.9,5.8,3.8,9C651.6,102.2,652,105.6,652,109.1z M636.8,109.1
		c0-3.1-0.6-6.1-1.8-8.8c-1.2-2.8-2.8-5.2-4.9-7.2c-2.1-2.1-4.5-3.7-7.2-4.9c-2.8-1.2-5.7-1.8-8.9-1.8h-7.6v45.5h7.6
		c3.1,0,6.1-0.6,8.9-1.8c2.8-1.2,5.2-2.8,7.2-4.9c2.1-2.1,3.7-4.5,4.9-7.2C636.2,115.2,636.8,112.2,636.8,109.1z"/>
	<path class="st1" d="M730,147h-15.2v-15.2h-30.4V147h-15.1v-45.5c0-4.2,0.8-8.1,2.4-11.8c1.6-3.7,3.7-6.9,6.5-9.7
		c2.7-2.8,5.9-4.9,9.6-6.5c3.7-1.6,7.6-2.4,11.8-2.4c4.2,0,8.1,0.8,11.8,2.4c3.7,1.6,6.9,3.8,9.7,6.5s4.9,6,6.5,9.7
		c1.6,3.7,2.4,7.6,2.4,11.8V147z M714.8,116.7v-15.2c0-2.1-0.4-4-1.2-5.9c-0.8-1.9-1.9-3.5-3.3-4.8c-1.4-1.4-3-2.5-4.8-3.3
		c-1.9-0.8-3.8-1.2-5.9-1.2c-2.1,0-4,0.4-5.9,1.2c-1.9,0.8-3.5,1.9-4.8,3.3c-1.4,1.4-2.5,3-3.3,4.8c-0.8,1.9-1.2,3.8-1.2,5.9v15.2
		H714.8z"/>
	<path class="st1" d="M825.6,109.4c0,3.6-0.5,7.1-1.4,10.4c-0.9,3.3-2.2,6.5-3.9,9.4c-1.7,2.9-3.7,5.6-6.1,8c-2.4,2.4-5,4.5-7.9,6.2
		c-2.9,1.7-6,3-9.4,4c-3.4,0.9-6.8,1.4-10.4,1.4c-3.6,0-7.1-0.5-10.4-1.4c-3.3-0.9-6.5-2.3-9.4-4c-2.9-1.7-5.6-3.8-8-6.2
		c-2.4-2.4-4.5-5.1-6.2-8c-1.7-2.9-3-6-4-9.4c-0.9-3.3-1.4-6.8-1.4-10.4c0-3.6,0.5-7.1,1.4-10.4c0.9-3.3,2.3-6.5,4-9.4
		c1.7-2.9,3.8-5.5,6.2-7.9c2.4-2.4,5.1-4.4,8-6.1c2.9-1.7,6-3,9.4-3.9c3.3-0.9,6.8-1.4,10.4-1.4c3.6,0,7.1,0.5,10.4,1.4
		c3.3,0.9,6.5,2.2,9.4,3.9c2.9,1.7,5.5,3.7,7.9,6.1c2.4,2.4,4.4,5,6.1,7.9c1.7,2.9,3,6,3.9,9.4C825.2,102.3,825.6,105.8,825.6,109.4
		z M810.5,109.4c0-3.3-0.6-6.4-1.9-9.4s-3-5.5-5.2-7.7c-2.2-2.2-4.7-3.9-7.7-5.2c-2.9-1.3-6.1-1.9-9.4-1.9c-3.4,0-6.5,0.6-9.4,1.9
		s-5.5,3-7.7,5.2c-2.2,2.2-3.9,4.7-5.2,7.7s-1.9,6.1-1.9,9.4c0,3.3,0.6,6.4,1.9,9.3s3,5.5,5.2,7.6s4.7,3.9,7.7,5.2s6.1,1.9,9.4,1.9
		c3.3,0,6.4-0.6,9.4-1.9c2.9-1.3,5.5-3,7.7-5.2s3.9-4.7,5.2-7.6S810.5,112.7,810.5,109.4z"/>
</g>
</svg>
