<?xml version="1.0" encoding="utf-8"?>
<!-- Generator: Adobe Illustrator 26.1.0, SVG Export Plug-In . SVG Version: 6.00 Build 0)  -->
<svg version="1.1" id="Layer_1" xmlns="http://www.w3.org/2000/svg" xmlns:xlink="http://www.w3.org/1999/xlink" x="0px" y="0px"
	 viewBox="0 0 237.45 268.09" style="enable-background:new 0 0 237.45 268.09;" xml:space="preserve">
<style type="text/css">
	.st0{fill:#FFF0CD;}
	.st1{fill:#FFFFFF;}
	.st2{fill:none;stroke:#FFFFFF;stroke-width:28;stroke-linecap:round;stroke-miterlimit:10;}
	.st3{fill:#FFF7E2;}
	.st4{fill:#FFD997;}
	.st5{fill:#4B1E0D;}
	.st6{fill:#E1216F;}
	.st7{fill:#F5CD78;}
	.st8{fill:#4A2011;}
	.st9{fill:#D9B060;}
</style>
<g>
	<g>
		<g>
			<path class="st3" d="M86.23,78.01c0,14.94-10.64,16.96-18.79,16.96S48.65,88.9,48.65,73.96s16.15-26.83,25.98-22.27
				C82.03,55.11,86.23,63.07,86.23,78.01z"/>
		</g>
		<g>
			<path class="st5" d="M67.44,96.97c-8.36,0-20.79-6.13-20.79-23c0-8.38,4.91-16.93,12.52-21.79c5.6-3.58,11.69-4.44,16.31-2.3
				c8.59,3.98,12.76,13.18,12.76,28.14C88.23,90.59,81.24,96.97,67.44,96.97z M69.94,52.71c-2.68,0-5.7,0.97-8.62,2.84
				c-6.48,4.14-10.67,11.37-10.67,18.42c0,13.94,10.04,19,16.79,19c11.61,0,16.79-4.61,16.79-14.96c0-13.24-3.42-21.25-10.45-24.51
				C72.64,52.97,71.33,52.71,69.94,52.71z"/>
		</g>
	</g>
	<g>
		<g>
			<path class="st3" d="M136.96,67.11c0,14.94-10.64,16.96-18.79,16.96S99.37,78,99.37,63.06s16.15-26.83,25.98-22.27
				C132.75,44.22,136.96,52.17,136.96,67.11z"/>
		</g>
		<g>
			<path class="st5" d="M118.16,86.07c-8.36,0-20.79-6.13-20.79-23c0-8.38,4.91-16.93,12.52-21.79c5.6-3.58,11.69-4.44,16.31-2.3
				c8.59,3.98,12.76,13.18,12.76,28.14C138.96,79.69,131.96,86.07,118.16,86.07z M120.66,41.81c-2.68,0-5.7,0.97-8.62,2.84
				c-6.48,4.14-10.67,11.37-10.67,18.42c0,13.94,10.04,19,16.79,19c11.61,0,16.79-4.61,16.79-14.96c0-13.24-3.42-21.25-10.45-24.51
				C123.36,42.07,122.06,41.81,120.66,41.81z"/>
		</g>
	</g>
	<g>
		<g>
			<path class="st3" d="M188.52,76.75c0,14.94-10.64,16.96-18.79,16.96s-18.79-6.07-18.79-21.01s16.15-26.83,25.98-22.27
				C184.32,53.86,188.52,61.81,188.52,76.75z"/>
		</g>
		<g>
			<path class="st5" d="M169.73,95.71c-8.36,0-20.79-6.13-20.79-23c0-8.38,4.91-16.93,12.52-21.79c5.6-3.58,11.69-4.44,16.31-2.3
				c8.59,3.98,12.76,13.18,12.76,28.14C190.52,89.33,183.52,95.71,169.73,95.71z M172.23,51.45c-2.68,0-5.7,0.97-8.62,2.84
				c-6.48,4.14-10.67,11.37-10.67,18.42c0,13.94,10.04,19,16.79,19c11.62,0,16.79-4.61,16.79-14.96c0-13.24-3.42-21.25-10.45-24.51
				C174.92,51.71,173.62,51.45,172.23,51.45z"/>
		</g>
	</g>
	<g>
		<g>
			<path class="st6" d="M115.86,67.44c0,16.5-11.79,18.72-20.82,18.72s-20.82-6.7-20.82-23.19S92.1,33.35,103,38.38
				C111.2,42.16,115.86,50.95,115.86,67.44z"/>
		</g>
		<g>
			<path class="st5" d="M95.04,88.16c-9.17,0-22.82-6.71-22.82-25.19c0-9.16,5.38-18.52,13.72-23.85
				c6.16-3.94,12.85-4.89,17.91-2.56c9.43,4.35,14.02,14.45,14.02,30.88C117.86,81.19,110.18,88.16,95.04,88.16z M97.81,39.29
				c-3.03,0-6.43,1.09-9.72,3.19c-7.21,4.62-11.87,12.65-11.87,20.48c0,15.55,11.25,21.19,18.82,21.19
				c13.02,0,18.82-5.16,18.82-16.72c0-14.7-3.83-23.62-11.69-27.25C100.86,39.59,99.38,39.29,97.81,39.29z"/>
		</g>
	</g>
	<g>
		<g>
			<path class="st6" d="M69.92,76.24c7.5,14.69-7.92,17.97-15.97,22.08c-8.04,4.11-15.65,7.57-23.15-7.12s-4.71-27.7,8.19-32.51
				C47.46,55.54,62.42,61.55,69.92,76.24z"/>
		</g>
		<g>
			<path class="st5" d="M43.32,103.92c-4.75,0-9.67-2.76-14.29-11.82c-4.47-8.75-5.51-17.23-2.93-23.87
				c2.04-5.26,6.26-9.21,12.2-11.42C47.82,53.27,63.88,60,71.7,75.33c2.27,4.44,2.8,8.41,1.57,11.81
				c-2.1,5.82-8.56,8.61-14.27,11.07c-1.5,0.65-2.92,1.26-4.14,1.88C51.32,101.91,47.38,103.92,43.32,103.92z M43.76,59.9
				c-1.52,0-2.89,0.22-4.07,0.66c-4.91,1.83-8.23,4.9-9.87,9.12c-2.16,5.56-1.18,12.88,2.76,20.6c6.76,13.24,12.81,10.16,20.46,6.25
				c1.33-0.68,2.81-1.32,4.38-1.99c4.96-2.14,10.58-4.57,12.09-8.75c0.85-2.35,0.4-5.17-1.37-8.64
				C62.13,65.38,51.28,59.9,43.76,59.9z"/>
		</g>
	</g>
	<g>
		<g>
			<path class="st6" d="M166.16,62.84c0,16.5-18.08,19.55-27.11,19.55s-16.21-6.13-16.21-22.63s14.39-29.34,25.29-24.31
				C156.34,39.23,166.16,46.34,166.16,62.84z"/>
		</g>
		<g>
			<path class="st5" d="M139.05,84.39c-5.48,0-18.21-2.4-18.21-24.63c0-9.9,4.97-19.48,12.67-24.41c5.11-3.27,10.74-3.89,15.46-1.72
				c12.91,5.96,19.19,15.51,19.19,29.2C168.16,78.74,152.48,84.39,139.05,84.39z M143.05,36.34c-2.39,0-4.91,0.8-7.38,2.38
				c-6.58,4.21-10.83,12.47-10.83,21.04c0,9.41,2.46,20.63,14.21,20.63c4.19,0,25.11-0.85,25.11-17.55
				c0-15.94-9.62-22.23-16.86-25.57C145.96,36.65,144.53,36.34,143.05,36.34z"/>
		</g>
	</g>
	<g>
		<g>
			<path class="st6" d="M202.69,95.47c-10.06,13.07-21,7.31-28.85,2.85c-7.85-4.46-12.46-12.18-4.31-26.52
				c8.15-14.34,30.72-12.76,37.71-3C212.5,76.14,211.3,84.29,202.69,95.47z"/>
		</g>
		<g>
			<path class="st5" d="M188.63,105.48c-6.23,0-11.92-3.23-15.78-5.42c-7.48-4.25-14.42-12.77-5.06-29.25
				c3.89-6.85,11.22-11.05,20.11-11.52c8.77-0.45,17,2.81,20.96,8.34c5.92,8.27,4.51,17.23-4.59,29.05l0,0
				C199.17,103.33,193.72,105.48,188.63,105.48z M189.51,63.26c-0.46,0-0.93,0.01-1.39,0.04c-7.5,0.39-13.63,3.85-16.84,9.5
				c-8.38,14.75-1.98,20.64,3.56,23.79c8.97,5.1,17.74,8.76,26.27-2.33l0,0c7.95-10.33,9.3-17.59,4.51-24.28
				C202.68,65.87,196.33,63.26,189.51,63.26z"/>
		</g>
	</g>
	<g>
		<g>
			<ellipse class="st7" cx="118.46" cy="213.59" rx="21.97" ry="20.13"/>
			<path class="st8" d="M118.46,235.7c-6.11,0-12.23-2.13-16.88-6.4c-4.57-4.19-7.08-9.77-7.08-15.71c0-5.94,2.52-11.52,7.08-15.71
				c9.31-8.53,24.46-8.53,33.77,0c4.57,4.19,7.08,9.77,7.08,15.71c0,5.95-2.52,11.52-7.08,15.71
				C130.69,233.57,124.58,235.7,118.46,235.7z M118.46,195.45c-5.14,0-10.27,1.79-14.18,5.38c-3.73,3.42-5.79,7.95-5.79,12.76
				c0,4.81,2.05,9.34,5.79,12.76c7.82,7.17,20.54,7.17,28.36,0c3.73-3.42,5.79-7.95,5.79-12.76c0-4.81-2.05-9.34-5.79-12.76
				C128.74,197.24,123.6,195.45,118.46,195.45z"/>
		</g>
	</g>
	<g>
		<g>
			<path class="st7" d="M84.18,188.91c-3.32,0-6.61-1.43-8.88-4.19c-4.03-4.9-3.33-12.14,1.57-16.18
				c23.15-19.05,59.64-19.24,83.08-0.44c4.95,3.97,5.74,11.21,1.77,16.16c-3.97,4.95-11.21,5.74-16.16,1.77
				c-14.76-11.84-39.52-11.72-54.08,0.26C89.34,188.05,86.75,188.91,84.18,188.91z"/>
			<path class="st8" d="M84.18,190.91c-4.05,0-7.85-1.79-10.43-4.92c-4.73-5.74-3.9-14.26,1.85-18.99
				c23.86-19.63,61.46-19.82,85.6-0.45c5.8,4.66,6.74,13.17,2.08,18.97c-4.66,5.8-13.17,6.73-18.97,2.08
				c-14.07-11.29-37.68-11.18-51.56,0.24C90.34,189.82,87.29,190.91,84.18,190.91z M118.67,156.11c-14.61,0-29.21,4.66-40.53,13.97
				c-4.04,3.33-4.62,9.32-1.3,13.36c1.81,2.2,4.48,3.46,7.34,3.46c2.19,0,4.33-0.77,6.03-2.16c15.24-12.54,41.16-12.67,56.61-0.27
				c4.08,3.28,10.07,2.62,13.35-1.46c3.28-4.08,2.62-10.07-1.46-13.35C147.43,160.63,133.05,156.11,118.67,156.11z"/>
		</g>
	</g>
	<g>
		<g>
			<path class="st7" d="M172.45,152.02c-2.55,0-5.11-0.84-7.24-2.57c-25.77-20.94-67.71-20.94-93.48,0
				c-4.93,4-12.16,3.25-16.17-1.67c-4-4.93-3.25-12.16,1.67-16.17c16.46-13.38,38.21-20.74,61.24-20.74s44.77,7.37,61.24,20.74
				c4.93,4,5.67,11.24,1.67,16.17C179.1,150.57,175.79,152.02,172.45,152.02z"/>
			<path class="st8" d="M172.44,154.02c-3.08,0-6.1-1.07-8.5-3.02c-25.08-20.38-65.88-20.38-90.96,0
				c-5.77,4.69-14.29,3.81-18.98-1.96c-4.69-5.77-3.81-14.29,1.96-18.98c16.82-13.67,39.02-21.19,62.5-21.19
				c23.48,0,45.68,7.53,62.5,21.19c2.8,2.27,4.54,5.5,4.91,9.08c0.37,3.58-0.68,7.1-2.95,9.9
				C180.35,152.2,176.53,154.02,172.44,154.02L172.44,154.02C172.45,154.02,172.44,154.02,172.44,154.02z M118.46,131.76
				c17.39,0,34.77,5.38,48,16.13c1.71,1.39,3.78,2.12,5.97,2.12c0,0,0,0,0,0h0c2.88,0,5.56-1.28,7.37-3.51
				c3.3-4.06,2.68-10.05-1.38-13.35c-16.11-13.09-37.41-20.3-59.98-20.3c-22.57,0-43.87,7.21-59.98,20.3
				c-4.06,3.3-4.68,9.29-1.38,13.36c3.3,4.06,9.29,4.68,13.36,1.38C83.69,137.14,101.08,131.76,118.46,131.76z"/>
		</g>
	</g>
	<g>
		<ellipse transform="matrix(0.866 -0.5 0.5 0.866 -34.2359 27.425)" class="st3" cx="34.06" cy="77.6" rx="0.75" ry="1.52"/>
	</g>
	<g>
		<ellipse transform="matrix(0.866 -0.5 0.5 0.866 -29.6544 28.5936)" class="st3" cx="38.53" cy="69.63" rx="0.75" ry="1.52"/>
	</g>
	<g>
		<ellipse transform="matrix(0.866 -0.5 0.5 0.866 -27.6496 33.5604)" class="st3" cx="48.8" cy="68.37" rx="0.75" ry="1.52"/>
	</g>
	<g>
		<ellipse transform="matrix(0.866 -0.5 0.5 0.866 -28.6653 39.4114)" class="st3" cx="59.21" cy="73.2" rx="0.75" ry="1.52"/>
	</g>
	<g>
		<ellipse transform="matrix(0.866 -0.5 0.5 0.866 -31.9708 33.7822)" class="st3" cx="47.05" cy="76.55" rx="0.75" ry="1.52"/>
	</g>
	<g>
		<ellipse transform="matrix(0.866 -0.5 0.5 0.866 -36.3135 31.6884)" class="st3" cx="40.97" cy="83.61" rx="0.75" ry="1.52"/>
	</g>
	<g>
		<ellipse transform="matrix(0.866 -0.5 0.5 0.866 -40.1757 29.99)" class="st3" cx="35.87" cy="89.96" rx="0.75" ry="1.52"/>
	</g>
	<g>
		<ellipse transform="matrix(0.866 -0.5 0.5 0.866 -33.6123 38.4155)" class="st3" cx="54.88" cy="81.93" rx="0.75" ry="1.52"/>
	</g>
	<g>
		<ellipse transform="matrix(0.5 -0.866 0.866 0.5 5.1144 102.5471)" class="st3" cx="91.37" cy="46.84" rx="1.52" ry="0.75"/>
	</g>
	<g>
		<ellipse transform="matrix(0.5 -0.866 0.866 0.5 9.2859 111.0299)" class="st3" cx="100.8" cy="47.47" rx="1.52" ry="0.75"/>
	</g>
	<g>
		<ellipse transform="matrix(0.5 -0.866 0.866 0.5 7.0708 119.7924)" class="st3" cx="107.28" cy="53.77" rx="1.52" ry="0.75"/>
	</g>
	<g>
		<ellipse transform="matrix(0.5 -0.866 0.866 0.5 -7.081 98.3549)" class="st3" cx="81.64" cy="55.31" rx="1.52" ry="0.75"/>
	</g>
	<g>
		<ellipse transform="matrix(0.5 -0.866 0.866 0.5 -2.6089 108.197)" class="st3" cx="92.4" cy="56.36" rx="1.52" ry="0.75"/>
	</g>
	<g>
		<ellipse transform="matrix(0.5 -0.866 0.866 0.5 -5.6222 118.4883)" class="st3" cx="99.8" cy="64.11" rx="1.52" ry="0.75"/>
	</g>
	<g>
		<ellipse transform="matrix(0.5 -0.866 0.866 0.5 -1.5224 128.384)" class="st3" cx="110.42" cy="65.51" rx="1.52" ry="0.75"/>
	</g>
	<g>
		<ellipse transform="matrix(0.5 -0.866 0.866 0.5 -14.8127 107.74)" class="st3" cx="85.9" cy="66.7" rx="1.52" ry="0.75"/>
	</g>
	<g>
		
			<ellipse transform="matrix(0.9942 -0.1077 0.1077 0.9942 -4.1666 14.7098)" class="st3" cx="134.12" cy="45.94" rx="0.75" ry="1.52"/>
	</g>
	<g>
		
			<ellipse transform="matrix(0.9942 -0.1077 0.1077 0.9942 -3.7134 15.6964)" class="st3" cx="143.49" cy="42.23" rx="0.75" ry="1.52"/>
	</g>
	<g>
		
			<ellipse transform="matrix(0.9942 -0.1077 0.1077 0.9942 -4.0923 16.9241)" class="st3" cx="154.67" cy="46.36" rx="0.75" ry="1.52"/>
	</g>
	<g>
		
			<ellipse transform="matrix(0.9942 -0.1077 0.1077 0.9942 -5.3137 14.8681)" class="st3" cx="135.02" cy="56.64" rx="0.75" ry="1.52"/>
	</g>
	<g>
		
			<ellipse transform="matrix(0.9942 -0.1077 0.1077 0.9942 -5.4816 16.3711)" class="st3" cx="148.85" cy="58.94" rx="0.75" ry="1.52"/>
	</g>
	<g>
		
			<ellipse transform="matrix(0.9942 -0.1077 0.1077 0.9942 -5.7927 17.5952)" class="st3" cx="160.03" cy="62.44" rx="0.75" ry="1.52"/>
	</g>
	<g>
		
			<ellipse transform="matrix(0.8474 -0.5309 0.5309 0.8474 -10.1168 111.1875)" class="st3" cx="188.39" cy="73.2" rx="1.52" ry="0.75"/>
	</g>
	<g>
		
			<ellipse transform="matrix(0.8474 -0.5309 0.5309 0.8474 -12.217 103.7397)" class="st3" cx="174.39" cy="73.13" rx="1.52" ry="0.75"/>
	</g>
	<g>
		<g>
			<path class="st7" d="M197.98,117.3c-2.55,0-5.11-0.84-7.24-2.57c-39.85-32.38-104.7-32.38-144.56,0
				c-4.93,4-12.16,3.25-16.17-1.67c-4-4.93-3.25-12.16,1.67-16.17c23.28-18.92,54.1-29.34,86.77-29.34s63.49,10.42,86.77,29.34
				c4.93,4,5.67,11.24,1.67,16.17C204.64,115.85,201.32,117.3,197.98,117.3z"/>
			<path class="st8" d="M197.98,119.3c-3.08,0-6.1-1.07-8.5-3.02c-39.16-31.82-102.88-31.82-142.03,0
				c-5.78,4.69-14.29,3.81-18.98-1.96c-2.27-2.8-3.32-6.31-2.95-9.9c0.37-3.59,2.12-6.81,4.91-9.08
				c23.64-19.21,54.9-29.79,88.03-29.79c33.13,0,64.4,10.58,88.04,29.79c2.8,2.27,4.54,5.5,4.91,9.08c0.37,3.58-0.68,7.1-2.95,9.9
				C205.89,117.48,202.07,119.3,197.98,119.3L197.98,119.3C197.98,119.3,197.98,119.3,197.98,119.3z M118.46,88.46
				c26.64,0,53.26,8.24,73.54,24.71c1.71,1.39,3.78,2.12,5.97,2.12c0,0,0,0,0,0h0c2.88,0,5.56-1.28,7.38-3.51
				c1.6-1.97,2.34-4.44,2.08-6.96c-0.26-2.52-1.49-4.79-3.46-6.39c-22.93-18.63-53.3-28.89-85.51-28.89
				c-32.21,0-62.58,10.26-85.51,28.89c-1.97,1.6-3.2,3.87-3.46,6.39c-0.26,2.52,0.48,4.99,2.08,6.96c3.3,4.06,9.29,4.68,13.35,1.38
				C65.2,96.7,91.83,88.46,118.46,88.46z"/>
		</g>
	</g>
	<g>
		<g>
			<path class="st9" d="M134.1,227.84c-6.61,6.06-16.37,7.45-24.43,4.17c-4.55-8.87-8.11-18.03-10.83-27.27
				c1.03-1.95,2.43-3.76,4.19-5.37c8.58-7.86,22.49-7.86,31.06,0C142.68,207.23,142.68,219.98,134.1,227.84z"/>
			<path class="st8" d="M118.62,235.26c-3.2,0-6.44-0.61-9.52-1.86l-0.52-0.21l-0.25-0.5c-4.42-8.62-8.1-17.89-10.93-27.53
				l-0.17-0.59l0.29-0.54c1.14-2.14,2.66-4.08,4.51-5.77c9.12-8.36,23.97-8.36,33.09,0c4.46,4.08,6.92,9.53,6.92,15.33
				c0,5.81-2.46,11.26-6.92,15.35l0,0C130.6,233.09,124.67,235.26,118.62,235.26z M110.75,230.82c7.61,2.87,16.52,1.25,22.34-4.09
				c3.84-3.52,5.95-8.18,5.95-13.14c0-4.95-2.11-9.61-5.95-13.12c-8.01-7.34-21.03-7.34-29.04,0c-1.45,1.32-2.65,2.81-3.59,4.44
				C103.16,213.98,106.62,222.69,110.75,230.82z"/>
		</g>
		<g>
			<path class="st9" d="M161.82,184.29c-3.97,4.95-11.21,5.74-16.16,1.76c-13.91-11.16-36.72-11.7-51.49-1.67
				c-1.4-8.32-2.2-16.61-2.51-24.73c22.04-9.51,49.47-6.71,68.38,8.47C165,172.09,165.8,179.33,161.82,184.29z"/>
			<path class="st8" d="M152.85,190.08c-2.85,0-5.73-0.93-8.12-2.86c-13.16-10.56-35.46-11.28-49.71-1.6l-1.94,1.31l-0.39-2.31
				c-1.35-8.08-2.21-16.46-2.53-24.92l-0.04-1.03l0.94-0.41c22.99-9.92,51.09-6.43,69.92,8.68c5.59,4.49,6.49,12.69,2,18.27
				C160.43,188.42,156.66,190.08,152.85,190.08z M118.77,175.71c10.14,0,20.25,3.08,27.83,9.17c4.3,3.45,10.6,2.76,14.05-1.54
				c1.67-2.08,2.43-4.69,2.14-7.34c-0.29-2.66-1.6-5.04-3.68-6.71c-17.73-14.23-44.08-17.65-65.9-8.66
				c0.31,7.2,1.01,14.34,2.09,21.26C102.24,177.76,110.52,175.71,118.77,175.71z"/>
		</g>
		<g>
			<path class="st9" d="M181.48,147.79c-2.27,2.79-5.58,4.24-8.92,4.24c-2.54,0-5.11-0.85-7.24-2.58
				c-19.8-16.09-49.13-19.82-73.36-11.18c0.55-8.67,1.61-16.98,3.04-24.74c7.59-1.76,15.5-2.66,23.58-2.66
				c23.03,0,44.77,7.37,61.24,20.75C184.73,135.63,185.48,142.87,181.48,147.79z"/>
			<path class="st8" d="M172.55,153.54c-2.97,0-5.88-1.04-8.19-2.92c-18.71-15.2-47.61-19.6-71.91-10.93l-2.14,0.76l0.14-2.27
				c0.53-8.39,1.56-16.77,3.06-24.92l0.18-0.97l0.96-0.22c7.73-1.79,15.78-2.7,23.92-2.7c23.36,0,45.45,7.49,62.19,21.08
				c2.69,2.19,4.37,5.3,4.73,8.75c0.36,3.45-0.65,6.84-2.84,9.53C180.16,151.79,176.49,153.54,172.55,153.54z M118.71,132.19
				c17.46,0,34.56,5.56,47.54,16.11c1.77,1.45,4.01,2.24,6.29,2.24c3.03,0,5.86-1.34,7.76-3.69l0,0c3.48-4.28,2.83-10.58-1.45-14.06
				c-16.21-13.16-37.62-20.41-60.29-20.41c-7.57,0-15.06,0.81-22.28,2.4c-1.25,7-2.15,14.17-2.68,21.35
				C101.78,133.48,110.29,132.19,118.71,132.19z"/>
		</g>
		<g>
			<path class="st9" d="M207.01,113.07c-2.9,2.13-5.59,4.24-8.93,4.24c-2.54,0-5.11-0.84-7.24-2.57
				c-24.58-19.97-58.67-27.63-90.54-22.95c2.08-6.71,8.8-19.52,14.17-27.9c3.36-5.25,9.48-8.08,15.66-7.26
				c29.56,3.92,58.58,25.08,75.21,40.27C210.84,101.06,213.36,108.4,207.01,113.07z"/>
			<path class="st8" d="M198.08,118.81c-2.97,0-5.88-1.03-8.19-2.91c-23.34-18.96-56.75-27.43-89.38-22.63l-2.36,0.35l0.71-2.27
				c2.19-7.07,9.15-20.17,14.34-28.26c3.66-5.71,10.38-8.83,17.12-7.93c33.25,4.41,64.17,29.83,75.98,40.6
				c3.75,2.86,5.98,6.82,5.95,10.6c-0.02,3.1-1.52,5.84-4.35,7.93l-0.41,0.3C204.67,116.66,201.76,118.81,198.08,118.81z
				 M118.55,88.96c27.24,0,53.67,8.72,73.24,24.62c1.8,1.46,3.98,2.23,6.29,2.23c2.69,0,4.98-1.69,7.63-3.65l0.41-0.31
				c2.06-1.52,3.12-3.38,3.13-5.53c0.02-2.82-1.83-5.97-4.82-8.23l-0.11-0.09c-11.56-10.56-41.95-35.59-74.4-39.89
				c-5.58-0.75-11.16,1.84-14.2,6.58c-4.57,7.12-10.51,18.15-13.21,25.27C107.86,89.29,113.23,88.96,118.55,88.96z"/>
		</g>
	</g>
	<g>
		
			<ellipse transform="matrix(0.7071 -0.7071 0.7071 0.7071 -60.7661 56.5553)" class="st4" cx="37.89" cy="101.63" rx="0.71" ry="0.76"/>
	</g>
	<g>
		
			<ellipse transform="matrix(0.7071 -0.7071 0.7071 0.7071 -66.9864 59.9132)" class="st4" cx="38.83" cy="110.82" rx="0.71" ry="0.76"/>
	</g>
	<g>
		
			<ellipse transform="matrix(0.7071 -0.7071 0.7071 0.7071 -57.6597 66.9892)" class="st4" cx="52.03" cy="103.1" rx="0.71" ry="0.76"/>
	</g>
	<g>
		
			<ellipse transform="matrix(0.7071 -0.7071 0.7071 0.7071 -55.6469 61.4383)" class="st4" cx="46.34" cy="97.89" rx="0.71" ry="0.76"/>
	</g>
	<g>
		
			<ellipse transform="matrix(0.7071 -0.7071 0.7071 0.7071 -49.4585 61.5664)" class="st4" cx="49.59" cy="90.48" rx="0.71" ry="0.76"/>
	</g>
	<g>
		
			<ellipse transform="matrix(0.7071 -0.7071 0.7071 0.7071 -48.2556 73.4834)" class="st4" cx="64.57" cy="94.99" rx="0.71" ry="0.76"/>
	</g>
	<g>
		
			<ellipse transform="matrix(0.7071 -0.7071 0.7071 0.7071 -49.4452 67.9566)" class="st4" cx="57.31" cy="93.66" rx="0.71" ry="0.76"/>
	</g>
	<g>
		
			<ellipse transform="matrix(0.7071 -0.7071 0.7071 0.7071 -36.192 74.9401)" class="st4" cx="72.36" cy="81.16" rx="0.71" ry="0.76"/>
	</g>
	<g>
		
			<ellipse transform="matrix(0.7071 -0.7071 0.7071 0.7071 -43.1012 67.4125)" class="st4" cx="59.82" cy="85.73" rx="0.71" ry="0.76"/>
	</g>
	<g>
		
			<ellipse transform="matrix(0.7071 -0.7071 0.7071 0.7071 -35.4589 88.2382)" class="st4" cx="88.78" cy="86.92" rx="0.71" ry="0.76"/>
	</g>
	<g>
		
			<ellipse transform="matrix(0.7071 -0.7071 0.7071 0.7071 -13.8692 112.4327)" class="st4" cx="128.78" cy="72.96" rx="0.71" ry="0.76"/>
	</g>
	<g>
		
			<ellipse transform="matrix(0.7071 -0.7071 0.7071 0.7071 -7.0098 121.1675)" class="st4" cx="142.76" cy="69.05" rx="0.71" ry="0.76"/>
	</g>
	<g>
		
			<ellipse transform="matrix(0.7071 -0.7071 0.7071 0.7071 -14.3017 122.5673)" class="st4" cx="140.8" cy="78.55" rx="0.71" ry="0.76"/>
	</g>
	<g>
		
			<ellipse transform="matrix(0.7071 -0.7071 0.7071 0.7071 -18.765 124.6475)" class="st4" cx="141.08" cy="84.98" rx="0.71" ry="0.76"/>
	</g>
	<g>
		
			<ellipse transform="matrix(0.7071 -0.7071 0.7071 0.7071 -8.3585 132.7233)" class="st4" cx="156.03" cy="76.45" rx="0.71" ry="0.76"/>
	</g>
	<g>
		
			<ellipse transform="matrix(0.7071 -0.7071 0.7071 0.7071 -15.9369 133.4314)" class="st4" cx="153.1" cy="85.95" rx="0.71" ry="0.76"/>
	</g>
	<g>
		
			<ellipse transform="matrix(0.7071 -0.7071 0.7071 0.7071 -5.9893 144.5913)" class="st4" cx="171.54" cy="79.53" rx="0.71" ry="0.76"/>
	</g>
	<g>
		
			<ellipse transform="matrix(0.7071 -0.7071 0.7071 0.7071 -11.513 140.3389)" class="st4" cx="163.65" cy="84.07" rx="0.71" ry="0.76"/>
	</g>
	<g>
		
			<ellipse transform="matrix(0.7071 -0.7071 0.7071 0.7071 -16.7725 145.5272)" class="st4" cx="167.28" cy="93.01" rx="0.71" ry="0.76"/>
	</g>
	<g>
		
			<ellipse transform="matrix(0.7071 -0.7071 0.7071 0.7071 -9.487 155.0115)" class="st4" cx="182.37" cy="88.96" rx="0.71" ry="0.76"/>
	</g>
	<g>
		
			<ellipse transform="matrix(0.7071 -0.7071 0.7071 0.7071 -17.5821 158.9434)" class="st4" cx="183.07" cy="100.7" rx="0.71" ry="0.76"/>
	</g>
	<g>
		
			<ellipse transform="matrix(0.7071 -0.7071 0.7071 0.7071 -13.617 155.1016)" class="st4" cx="180.42" cy="93.99" rx="0.71" ry="0.76"/>
	</g>
	<g>
		
			<ellipse transform="matrix(0.7071 -0.7071 0.7071 0.7071 -35.6674 81.7262)" class="st4" cx="80.82" cy="83.92" rx="0.71" ry="0.76"/>
	</g>
	<g>
		
			<ellipse transform="matrix(0.7071 -0.7071 0.7071 0.7071 -28.2112 82.4)" class="st4" cx="85.36" cy="75.25" rx="0.71" ry="0.76"/>
	</g>
	<g>
		
			<ellipse transform="matrix(0.7071 -0.7071 0.7071 0.7071 -30.6082 87.7917)" class="st4" cx="90.67" cy="80.84" rx="0.71" ry="0.76"/>
	</g>
	<g>
		
			<ellipse transform="matrix(0.7071 -0.7071 0.7071 0.7071 -22.0071 106.3607)" class="st4" cx="117.39" cy="79.75" rx="0.71" ry="0.76"/>
	</g>
	<g>
		
			<ellipse transform="matrix(0.7071 -0.7071 0.7071 0.7071 -9.2126 107.4857)" class="st4" cx="125.14" cy="64.86" rx="0.71" ry="0.76"/>
	</g>
	<g>
		
			<ellipse transform="matrix(0.7071 -0.7071 0.7071 0.7071 -23.846 91.8206)" class="st4" cx="98.91" cy="74.69" rx="0.71" ry="0.76"/>
	</g>
	<g>
		
			<ellipse transform="matrix(0.7071 -0.7071 0.7071 0.7071 -34.0392 93.9012)" class="st4" cx="96.33" cy="88.04" rx="0.71" ry="0.76"/>
	</g>
	<g>
		
			<ellipse transform="matrix(0.7071 -0.7071 0.7071 0.7071 -21.8471 115.39)" class="st4" cx="128.36" cy="84.07" rx="0.71" ry="0.76"/>
	</g>
	<g>
		
			<ellipse transform="matrix(0.7071 -0.7071 0.7071 0.7071 -42.0466 81.4167)" class="st4" cx="77.26" cy="91.46" rx="0.71" ry="0.76"/>
	</g>
	<g>
		
			<ellipse transform="matrix(0.7071 -0.7071 0.7071 0.7071 -40.9136 76.6064)" class="st4" cx="72.02" cy="87.69" rx="0.71" ry="0.76"/>
	</g>
	<g>
		
			<ellipse transform="matrix(0.8236 -0.5671 0.5671 0.8236 -65.6258 59.4012)" class="st4" cx="62.7" cy="135.22" rx="0.71" ry="0.76"/>
	</g>
	<g>
		
			<ellipse transform="matrix(0.8236 -0.5671 0.5671 0.8236 -70.977 60.6056)" class="st4" cx="61.96" cy="144.42" rx="0.71" ry="0.76"/>
	</g>
	<g>
		
			<ellipse transform="matrix(0.8236 -0.5671 0.5671 0.8236 -65.4928 67.8476)" class="st4" cx="76.34" cy="139.23" rx="0.71" ry="0.76"/>
	</g>
	<g>
		
			<ellipse transform="matrix(0.8236 -0.5671 0.5671 0.8236 -62.8252 64.1226)" class="st4" cx="71.69" cy="133.08" rx="0.71" ry="0.76"/>
	</g>
	<g>
		
			<ellipse transform="matrix(0.8236 -0.5671 0.5671 0.8236 -58.2288 65.5159)" class="st4" cx="76.23" cy="126.38" rx="0.71" ry="0.76"/>
	</g>
	<g>
		
			<ellipse transform="matrix(0.8236 -0.5671 0.5671 0.8236 -60.4909 73.6603)" class="st4" cx="88.19" cy="134.09" rx="0.71" ry="0.76"/>
	</g>
	<g>
		
			<ellipse transform="matrix(0.8236 -0.5671 0.5671 0.8236 -59.5588 70.2927)" class="st4" cx="83.24" cy="130.91" rx="0.71" ry="0.76"/>
	</g>
	<g>
		
			<ellipse transform="matrix(0.8236 -0.5671 0.5671 0.8236 -51.1218 78.2889)" class="st4" cx="100.32" cy="121.34" rx="0.71" ry="0.76"/>
	</g>
	<g>
		
			<ellipse transform="matrix(0.8236 -0.5671 0.5671 0.8236 -54.7052 71.2165)" class="st4" cx="87.15" cy="123.57" rx="0.71" ry="0.76"/>
	</g>
	<g>
		
			<ellipse transform="matrix(0.8236 -0.5671 0.5671 0.8236 -53.0474 89.67)" class="st4" cx="117.65" cy="130.13" rx="0.71" ry="0.76"/>
	</g>
	<g>
		
			<ellipse transform="matrix(0.8236 -0.5671 0.5671 0.8236 -46.6999 81.8053)" class="st4" cx="108.18" cy="115.99" rx="0.71" ry="0.76"/>
	</g>
	<g>
		
			<ellipse transform="matrix(0.8236 -0.5671 0.5671 0.8236 -43.701 89.6443)" class="st4" cx="122.29" cy="115.09" rx="0.71" ry="0.76"/>
	</g>
	<g>
		
			<ellipse transform="matrix(0.8236 -0.5671 0.5671 0.8236 -50.2375 97.8414)" class="st4" cx="132.2" cy="129.7" rx="0.71" ry="0.76"/>
	</g>
	<g>
		
			<ellipse transform="matrix(0.8236 -0.5671 0.5671 0.8236 -49.7547 106.9152)" class="st4" cx="147.03" cy="133.46" rx="0.71" ry="0.76"/>
	</g>
	<g>
		
			<ellipse transform="matrix(0.8236 -0.5671 0.5671 0.8236 -46.8713 94.541)" class="st4" cx="128.57" cy="122.63" rx="0.71" ry="0.76"/>
	</g>
	<g>
		
			<ellipse transform="matrix(0.8236 -0.5671 0.5671 0.8236 -50.2092 119.0578)" class="st4" cx="166.33" cy="140.26" rx="0.71" ry="0.76"/>
	</g>
	<g>
		
			<ellipse transform="matrix(0.8236 -0.5671 0.5671 0.8236 -43.5736 111.8528)" class="st4" cx="158.06" cy="125.99" rx="0.71" ry="0.76"/>
	</g>
	<g>
		
			<ellipse transform="matrix(0.8236 -0.5671 0.5671 0.8236 -49.714 113.067)" class="st4" cx="156.94" cy="136.47" rx="0.71" ry="0.76"/>
	</g>
	<g>
		
			<ellipse transform="matrix(0.8236 -0.5671 0.5671 0.8236 -47.2836 123.9567)" class="st4" cx="175.66" cy="138" rx="0.71" ry="0.76"/>
	</g>
	<g>
		
			<ellipse transform="matrix(0.8236 -0.5671 0.5671 0.8236 -43.576 102.9021)" class="st4" cx="143.67" cy="121.52" rx="0.71" ry="0.76"/>
	</g>
	<g>
		
			<ellipse transform="matrix(0.8236 -0.5671 0.5671 0.8236 -50.4237 85.9121)" class="st4" cx="112.92" cy="124.03" rx="0.71" ry="0.76"/>
	</g>
	<g>
		
			<ellipse transform="matrix(0.8236 -0.5671 0.5671 0.8236 -56.8402 79.124)" class="st4" cx="98.8" cy="130.95" rx="0.71" ry="0.76"/>
	</g>
	<g>
		
			<ellipse transform="matrix(0.8236 -0.5671 0.5671 0.8236 -82.4974 77.2492)" class="st4" cx="82.96" cy="171.27" rx="0.71" ry="0.76"/>
	</g>
	<g>
		
			<ellipse transform="matrix(0.8236 -0.5671 0.5671 0.8236 -87.8486 78.4536)" class="st4" cx="82.22" cy="180.48" rx="0.71" ry="0.76"/>
	</g>
	<g>
		
			<ellipse transform="matrix(0.8236 -0.5671 0.5671 0.8236 -82.3645 85.6956)" class="st4" cx="96.61" cy="175.28" rx="0.71" ry="0.76"/>
	</g>
	<g>
		
			<ellipse transform="matrix(0.8236 -0.5671 0.5671 0.8236 -98.3761 97.3665)" class="st4" cx="107.36" cy="206.86" rx="0.71" ry="0.76"/>
	</g>
	<g>
		
			<ellipse transform="matrix(0.8236 -0.5671 0.5671 0.8236 -105.5515 95.3206)" class="st4" cx="100.49" cy="217.37" rx="0.71" ry="0.76"/>
	</g>
	<g>
		
			<ellipse transform="matrix(0.8236 -0.5671 0.5671 0.8236 -84.5361 81.1436)" class="st4" cx="88.2" cy="176.5" rx="0.71" ry="0.76"/>
	</g>
	<g>
		
			<ellipse transform="matrix(0.8236 -0.5671 0.5671 0.8236 -75.1005 83.364)" class="st4" cx="96.49" cy="162.43" rx="0.71" ry="0.76"/>
	</g>
	<g>
		
			<ellipse transform="matrix(0.8236 -0.5671 0.5671 0.8236 -76.7006 92.5192)" class="st4" cx="110.41" cy="169.58" rx="0.71" ry="0.76"/>
	</g>
	<g>
		
			<ellipse transform="matrix(0.8236 -0.5671 0.5671 0.8236 -76.4304 88.1408)" class="st4" cx="103.5" cy="166.96" rx="0.71" ry="0.76"/>
	</g>
	<g>
		
			<ellipse transform="matrix(0.8236 -0.5671 0.5671 0.8236 -67.9935 96.1369)" class="st4" cx="120.58" cy="157.39" rx="0.71" ry="0.76"/>
	</g>
	<g>
		
			<ellipse transform="matrix(0.8236 -0.5671 0.5671 0.8236 -71.5768 89.0645)" class="st4" cx="107.42" cy="159.62" rx="0.71" ry="0.76"/>
	</g>
	<g>
		
			<ellipse transform="matrix(0.8236 -0.5671 0.5671 0.8236 -71.5387 104.5454)" class="st4" cx="132.33" cy="167.3" rx="0.71" ry="0.76"/>
	</g>
	<g>
		
			<ellipse transform="matrix(0.8236 -0.5671 0.5671 0.8236 -92.2525 107.1029)" class="st4" cx="126.08" cy="201.88" rx="0.71" ry="0.76"/>
	</g>
	<g>
		
			<ellipse transform="matrix(0.8236 -0.5671 0.5671 0.8236 -69.0245 101.3168)" class="st4" cx="128.39" cy="161.64" rx="0.71" ry="0.76"/>
	</g>
	<g>
		
			<ellipse transform="matrix(0.8236 -0.5671 0.5671 0.8236 -76.3373 116.0448)" class="st4" cx="148.42" cy="180.76" rx="0.71" ry="0.76"/>
	</g>
	<g>
		
			<ellipse transform="matrix(0.8236 -0.5671 0.5671 0.8236 -98.844 113.6637)" class="st4" cx="133.33" cy="215.76" rx="0.71" ry="0.76"/>
	</g>
	<g>
		
			<ellipse transform="matrix(0.8236 -0.5671 0.5671 0.8236 -95.4176 109.4636)" class="st4" cx="128.29" cy="208.15" rx="0.71" ry="0.76"/>
	</g>
	<g>
		
			<ellipse transform="matrix(0.8236 -0.5671 0.5671 0.8236 -106.4667 105.5125)" class="st4" cx="116.42" cy="223.94" rx="0.71" ry="0.76"/>
	</g>
	<g>
		
			<ellipse transform="matrix(0.8236 -0.5671 0.5671 0.8236 -104.6189 101.114)" class="st4" cx="110.27" cy="218.77" rx="0.71" ry="0.76"/>
	</g>
	<g>
		
			<ellipse transform="matrix(0.8236 -0.5671 0.5671 0.8236 -75.6186 108.1676)" class="st4" cx="136.11" cy="175.67" rx="0.71" ry="0.76"/>
	</g>
	<g>
		
			<ellipse transform="matrix(0.8236 -0.5671 0.5671 0.8236 -66.5167 106.909)" class="st4" cx="138.64" cy="160.4" rx="0.71" ry="0.76"/>
	</g>
	<g>
		
			<ellipse transform="matrix(0.8236 -0.5671 0.5671 0.8236 -71.8683 117.0015)" class="st4" cx="152.19" cy="174.06" rx="0.71" ry="0.76"/>
	</g>
	<g>
		
			<ellipse transform="matrix(0.8236 -0.5671 0.5671 0.8236 -100.0566 102.6501)" class="st4" cx="115.02" cy="212.2" rx="0.71" ry="0.76"/>
	</g>
	<g>
		
			<ellipse transform="matrix(0.8236 -0.5671 0.5671 0.8236 -106.8074 111.9626)" class="st4" cx="126.62" cy="227.71" rx="0.71" ry="0.76"/>
	</g>
	<g>
		
			<ellipse transform="matrix(0.8236 -0.5671 0.5671 0.8236 -73.2073 122.1977)" class="st4" cx="159.87" cy="178.81" rx="0.71" ry="0.76"/>
	</g>
	<g>
		
			<ellipse transform="matrix(0.8236 -0.5671 0.5671 0.8236 -69.5152 112.272)" class="st4" cx="145.76" cy="167.91" rx="0.71" ry="0.76"/>
	</g>
	<g>
		
			<ellipse transform="matrix(0.8236 -0.5671 0.5671 0.8236 -73.7254 99.7479)" class="st4" cx="123.52" cy="168.41" rx="0.71" ry="0.76"/>
	</g>
	<g>
		
			<ellipse transform="matrix(0.8236 -0.5671 0.5671 0.8236 -93.4355 101.0257)" class="st4" cx="115.72" cy="200.75" rx="0.71" ry="0.76"/>
	</g>
	<g>
		
			<ellipse transform="matrix(0.8236 -0.5671 0.5671 0.8236 -101.6599 109.2321)" class="st4" cx="124.8" cy="218.07" rx="0.71" ry="0.76"/>
	</g>
	<g>
		
			<ellipse transform="matrix(0.8236 -0.5671 0.5671 0.8236 -71.8703 96.3918)" class="st4" cx="119.05" cy="163.75" rx="0.71" ry="0.76"/>
	</g>
</g>
</svg>
