<svg version="1.1" id="prefix__Layer_1" xmlns="http://www.w3.org/2000/svg" x="0" y="0" viewBox="0 0 237.45 268.09" xml:space="preserve"><style>.prefix__st3{fill:#fff7e2}.prefix__st4{fill:#ffd997}.prefix__st5{fill:#4b1e0d}.prefix__st6{fill:#e1216f}.prefix__st7{fill:#f5cd78}.prefix__st8{fill:#4a2011}.prefix__st9{fill:#d9b060}</style><path class="prefix__st3" d="M86.23 78.01c0 14.94-10.64 16.96-18.79 16.96S48.65 88.9 48.65 73.96 64.8 47.13 74.63 51.69c7.4 3.42 11.6 11.38 11.6 26.32z"/><path class="prefix__st5" d="M67.44 96.97c-8.36 0-20.79-6.13-20.79-23 0-8.38 4.91-16.93 12.52-21.79 5.6-3.58 11.69-4.44 16.31-2.3 8.59 3.98 12.76 13.18 12.76 28.14-.01 12.57-7 18.95-20.8 18.95zm2.5-44.26c-2.68 0-5.7.97-8.62 2.84-6.48 4.14-10.67 11.37-10.67 18.42 0 13.94 10.04 19 16.79 19 11.61 0 16.79-4.61 16.79-14.96 0-13.24-3.42-21.25-10.45-24.51-1.14-.53-2.45-.79-3.84-.79z"/><path class="prefix__st3" d="M136.96 67.11c0 14.94-10.64 16.96-18.79 16.96S99.37 78 99.37 63.06s16.15-26.83 25.98-22.27c7.4 3.43 11.61 11.38 11.61 26.32z"/><path class="prefix__st5" d="M118.16 86.07c-8.36 0-20.79-6.13-20.79-23 0-8.38 4.91-16.93 12.52-21.79 5.6-3.58 11.69-4.44 16.31-2.3 8.59 3.98 12.76 13.18 12.76 28.14 0 12.57-7 18.95-20.8 18.95zm2.5-44.26c-2.68 0-5.7.97-8.62 2.84-6.48 4.14-10.67 11.37-10.67 18.42 0 13.94 10.04 19 16.79 19 11.61 0 16.79-4.61 16.79-14.96 0-13.24-3.42-21.25-10.45-24.51-1.14-.53-2.44-.79-3.84-.79z"/><path class="prefix__st3" d="M188.52 76.75c0 14.94-10.64 16.96-18.79 16.96s-18.79-6.07-18.79-21.01 16.15-26.83 25.98-22.27c7.4 3.43 11.6 11.38 11.6 26.32z"/><path class="prefix__st5" d="M169.73 95.71c-8.36 0-20.79-6.13-20.79-23 0-8.38 4.91-16.93 12.52-21.79 5.6-3.58 11.69-4.44 16.31-2.3 8.59 3.98 12.76 13.18 12.76 28.14-.01 12.57-7.01 18.95-20.8 18.95zm2.5-44.26c-2.68 0-5.7.97-8.62 2.84-6.48 4.14-10.67 11.37-10.67 18.42 0 13.94 10.04 19 16.79 19 11.62 0 16.79-4.61 16.79-14.96 0-13.24-3.42-21.25-10.45-24.51-1.15-.53-2.45-.79-3.84-.79z"/><path class="prefix__st6" d="M115.86 67.44c0 16.5-11.79 18.72-20.82 18.72s-20.82-6.7-20.82-23.19S92.1 33.35 103 38.38c8.2 3.78 12.86 12.57 12.86 29.06z"/><path class="prefix__st5" d="M95.04 88.16c-9.17 0-22.82-6.71-22.82-25.19 0-9.16 5.38-18.52 13.72-23.85 6.16-3.94 12.85-4.89 17.91-2.56 9.43 4.35 14.02 14.45 14.02 30.88-.01 13.75-7.69 20.72-22.83 20.72zm2.77-48.87c-3.03 0-6.43 1.09-9.72 3.19-7.21 4.62-11.87 12.65-11.87 20.48 0 15.55 11.25 21.19 18.82 21.19 13.02 0 18.82-5.16 18.82-16.72 0-14.7-3.83-23.62-11.69-27.25-1.31-.59-2.79-.89-4.36-.89z"/><path class="prefix__st6" d="M69.92 76.24c7.5 14.69-7.92 17.97-15.97 22.08-8.04 4.11-15.65 7.57-23.15-7.12s-4.71-27.7 8.19-32.51c8.47-3.15 23.43 2.86 30.93 17.55z"/><path class="prefix__st5" d="M43.32 103.92c-4.75 0-9.67-2.76-14.29-11.82-4.47-8.75-5.51-17.23-2.93-23.87 2.04-5.26 6.26-9.21 12.2-11.42 9.52-3.54 25.58 3.19 33.4 18.52 2.27 4.44 2.8 8.41 1.57 11.81-2.1 5.82-8.56 8.61-14.27 11.07-1.5.65-2.92 1.26-4.14 1.88-3.54 1.82-7.48 3.83-11.54 3.83zm.44-44.02c-1.52 0-2.89.22-4.07.66-4.91 1.83-8.23 4.9-9.87 9.12-2.16 5.56-1.18 12.88 2.76 20.6 6.76 13.24 12.81 10.16 20.46 6.25 1.33-.68 2.81-1.32 4.38-1.99 4.96-2.14 10.58-4.57 12.09-8.75.85-2.35.4-5.17-1.37-8.64C62.13 65.38 51.28 59.9 43.76 59.9z"/><path class="prefix__st6" d="M166.16 62.84c0 16.5-18.08 19.55-27.11 19.55s-16.21-6.13-16.21-22.63 14.39-29.34 25.29-24.31c8.21 3.78 18.03 10.89 18.03 27.39z"/><path class="prefix__st5" d="M139.05 84.39c-5.48 0-18.21-2.4-18.21-24.63 0-9.9 4.97-19.48 12.67-24.41 5.11-3.27 10.74-3.89 15.46-1.72 12.91 5.96 19.19 15.51 19.19 29.2 0 15.91-15.68 21.56-29.11 21.56zm4-48.05c-2.39 0-4.91.8-7.38 2.38-6.58 4.21-10.83 12.47-10.83 21.04 0 9.41 2.46 20.63 14.21 20.63 4.19 0 25.11-.85 25.11-17.55 0-15.94-9.62-22.23-16.86-25.57-1.34-.62-2.77-.93-4.25-.93z"/><path class="prefix__st6" d="M202.69 95.47c-10.06 13.07-21 7.31-28.85 2.85-7.85-4.46-12.46-12.18-4.31-26.52 8.15-14.34 30.72-12.76 37.71-3 5.26 7.34 4.06 15.49-4.55 26.67z"/><path class="prefix__st5" d="M188.63 105.48c-6.23 0-11.92-3.23-15.78-5.42-7.48-4.25-14.42-12.77-5.06-29.25 3.89-6.85 11.22-11.05 20.11-11.52 8.77-.45 17 2.81 20.96 8.34 5.92 8.27 4.51 17.23-4.59 29.05-5.1 6.65-10.55 8.8-15.64 8.8zm.88-42.22c-.46 0-.93.01-1.39.04-7.5.39-13.63 3.85-16.84 9.5-8.38 14.75-1.98 20.64 3.56 23.79 8.97 5.1 17.74 8.76 26.27-2.33 7.95-10.33 9.3-17.59 4.51-24.28-2.94-4.11-9.29-6.72-16.11-6.72z"/><ellipse class="prefix__st7" cx="118.46" cy="213.59" rx="21.97" ry="20.13"/><path class="prefix__st8" d="M118.46 235.7c-6.11 0-12.23-2.13-16.88-6.4-4.57-4.19-7.08-9.77-7.08-15.71 0-5.94 2.52-11.52 7.08-15.71 9.31-8.53 24.46-8.53 33.77 0 4.57 4.19 7.08 9.77 7.08 15.71 0 5.95-2.52 11.52-7.08 15.71-4.66 4.27-10.77 6.4-16.89 6.4zm0-40.25c-5.14 0-10.27 1.79-14.18 5.38-3.73 3.42-5.79 7.95-5.79 12.76s2.05 9.34 5.79 12.76c7.82 7.17 20.54 7.17 28.36 0 3.73-3.42 5.79-7.95 5.79-12.76s-2.05-9.34-5.79-12.76c-3.9-3.59-9.04-5.38-14.18-5.38z"/><path class="prefix__st7" d="M84.18 188.91c-3.32 0-6.61-1.43-8.88-4.19-4.03-4.9-3.33-12.14 1.57-16.18 23.15-19.05 59.64-19.24 83.08-.44 4.95 3.97 5.74 11.21 1.77 16.16-3.97 4.95-11.21 5.74-16.16 1.77-14.76-11.84-39.52-11.72-54.08.26a11.463 11.463 0 01-7.3 2.62z"/><path class="prefix__st8" d="M84.18 190.91c-4.05 0-7.85-1.79-10.43-4.92-4.73-5.74-3.9-14.26 1.85-18.99 23.86-19.63 61.46-19.82 85.6-.45 5.8 4.66 6.74 13.17 2.08 18.97-4.66 5.8-13.17 6.73-18.97 2.08-14.07-11.29-37.68-11.18-51.56.24a13.547 13.547 0 01-8.57 3.07zm34.49-34.8c-14.61 0-29.21 4.66-40.53 13.97-4.04 3.33-4.62 9.32-1.3 13.36a9.461 9.461 0 007.34 3.46c2.19 0 4.33-.77 6.03-2.16 15.24-12.54 41.16-12.67 56.61-.27 4.08 3.28 10.07 2.62 13.35-1.46 3.28-4.08 2.62-10.07-1.46-13.35-11.28-9.03-25.66-13.55-40.04-13.55z"/><path class="prefix__st7" d="M172.45 152.02c-2.55 0-5.11-.84-7.24-2.57-25.77-20.94-67.71-20.94-93.48 0-4.93 4-12.16 3.25-16.17-1.67-4-4.93-3.25-12.16 1.67-16.17 16.46-13.38 38.21-20.74 61.24-20.74s44.77 7.37 61.24 20.74c4.93 4 5.67 11.24 1.67 16.17a11.504 11.504 0 01-8.93 4.24z"/><path class="prefix__st8" d="M172.44 154.02c-3.08 0-6.1-1.07-8.5-3.02-25.08-20.38-65.88-20.38-90.96 0-5.77 4.69-14.29 3.81-18.98-1.96-4.69-5.77-3.81-14.29 1.96-18.98 16.82-13.67 39.02-21.19 62.5-21.19 23.48 0 45.68 7.53 62.5 21.19 2.8 2.27 4.54 5.5 4.91 9.08.37 3.58-.68 7.1-2.95 9.9a13.456 13.456 0 01-10.48 4.98c.01 0 0 0 0 0zm-53.98-22.26c17.39 0 34.77 5.38 48 16.13a9.374 9.374 0 005.97 2.12c2.88 0 5.56-1.28 7.37-3.51 3.3-4.06 2.68-10.05-1.38-13.35-16.11-13.09-37.41-20.3-59.98-20.3s-43.87 7.21-59.98 20.3c-4.06 3.3-4.68 9.29-1.38 13.36 3.3 4.06 9.29 4.68 13.36 1.38 13.25-10.75 30.64-16.13 48.02-16.13z"/><ellipse transform="rotate(-30 34.054 77.598)" class="prefix__st3" cx="34.06" cy="77.6" rx=".75" ry="1.52"/><ellipse transform="rotate(-30 38.525 69.634)" class="prefix__st3" cx="38.53" cy="69.63" rx=".75" ry="1.52"/><ellipse transform="rotate(-30 48.796 68.377)" class="prefix__st3" cx="48.8" cy="68.37" rx=".75" ry="1.52"/><ellipse transform="rotate(-30 59.206 73.198)" class="prefix__st3" cx="59.21" cy="73.2" rx=".75" ry="1.52"/><ellipse transform="rotate(-30 47.049 76.55)" class="prefix__st3" cx="47.05" cy="76.55" rx=".75" ry="1.52"/><ellipse transform="rotate(-30 40.97 83.607)" class="prefix__st3" cx="40.97" cy="83.61" rx=".75" ry="1.52"/><ellipse transform="rotate(-30 35.87 89.964)" class="prefix__st3" cx="35.87" cy="89.96" rx=".75" ry="1.52"/><ellipse transform="rotate(-30 54.874 81.93)" class="prefix__st3" cx="54.88" cy="81.93" rx=".75" ry="1.52"/><ellipse transform="rotate(-60 91.367 46.847)" class="prefix__st3" cx="91.37" cy="46.84" rx="1.52" ry=".75"/><ellipse transform="rotate(-60 100.8 47.475)" class="prefix__st3" cx="100.8" cy="47.47" rx="1.52" ry=".75"/><ellipse transform="rotate(-60 107.28 53.775)" class="prefix__st3" cx="107.28" cy="53.77" rx="1.52" ry=".75"/><ellipse transform="rotate(-60 81.638 55.312)" class="prefix__st3" cx="81.64" cy="55.31" rx="1.52" ry=".75"/><ellipse transform="rotate(-60 92.398 56.36)" class="prefix__st3" cx="92.4" cy="56.36" rx="1.52" ry=".75"/><ellipse transform="rotate(-60 99.804 64.116)" class="prefix__st3" cx="99.8" cy="64.11" rx="1.52" ry=".75"/><ellipse transform="rotate(-60 110.424 65.513)" class="prefix__st3" cx="110.42" cy="65.51" rx="1.52" ry=".75"/><ellipse transform="rotate(-60 85.9 66.7)" class="prefix__st3" cx="85.9" cy="66.7" rx="1.52" ry=".75"/><ellipse transform="rotate(-6.174 134.109 45.91)" class="prefix__st3" cx="134.12" cy="45.94" rx=".75" ry="1.52"/><ellipse transform="rotate(-6.174 143.469 42.205)" class="prefix__st3" cx="143.49" cy="42.23" rx=".75" ry="1.52"/><ellipse transform="rotate(-6.174 154.646 46.325)" class="prefix__st3" cx="154.67" cy="46.36" rx=".75" ry="1.52"/><ellipse transform="rotate(-6.174 135.003 56.608)" class="prefix__st3" cx="135.02" cy="56.64" rx=".75" ry="1.52"/><ellipse transform="rotate(-6.174 148.834 58.912)" class="prefix__st3" cx="148.85" cy="58.94" rx=".75" ry="1.52"/><ellipse transform="rotate(-6.174 160.012 62.403)" class="prefix__st3" cx="160.03" cy="62.44" rx=".75" ry="1.52"/><ellipse transform="rotate(-32.067 188.396 73.198)" class="prefix__st3" cx="188.39" cy="73.2" rx="1.52" ry=".75"/><ellipse transform="rotate(-32.067 174.388 73.128)" class="prefix__st3" cx="174.39" cy="73.13" rx="1.52" ry=".75"/><path class="prefix__st7" d="M197.98 117.3c-2.55 0-5.11-.84-7.24-2.57-39.85-32.38-104.7-32.38-144.56 0-4.93 4-12.16 3.25-16.17-1.67-4-4.93-3.25-12.16 1.67-16.17 23.28-18.92 54.1-29.34 86.77-29.34s63.49 10.42 86.77 29.34c4.93 4 5.67 11.24 1.67 16.17-2.25 2.79-5.57 4.24-8.91 4.24z"/><path class="prefix__st8" d="M197.98 119.3c-3.08 0-6.1-1.07-8.5-3.02-39.16-31.82-102.88-31.82-142.03 0-5.78 4.69-14.29 3.81-18.98-1.96-2.27-2.8-3.32-6.31-2.95-9.9.37-3.59 2.12-6.81 4.91-9.08 23.64-19.21 54.9-29.79 88.03-29.79s64.4 10.58 88.04 29.79c2.8 2.27 4.54 5.5 4.91 9.08.37 3.58-.68 7.1-2.95 9.9a13.456 13.456 0 01-10.48 4.98zm-79.52-30.84c26.64 0 53.26 8.24 73.54 24.71a9.374 9.374 0 005.97 2.12c2.88 0 5.56-1.28 7.38-3.51a9.432 9.432 0 002.08-6.96 9.429 9.429 0 00-3.46-6.39c-22.93-18.63-53.3-28.89-85.51-28.89-32.21 0-62.58 10.26-85.51 28.89a9.429 9.429 0 00-3.46 6.39c-.26 2.52.48 4.99 2.08 6.96 3.3 4.06 9.29 4.68 13.35 1.38 20.28-16.46 46.91-24.7 73.54-24.7z"/><path class="prefix__st9" d="M134.1 227.84c-6.61 6.06-16.37 7.45-24.43 4.17-4.55-8.87-8.11-18.03-10.83-27.27 1.03-1.95 2.43-3.76 4.19-5.37 8.58-7.86 22.49-7.86 31.06 0 8.59 7.86 8.59 20.61.01 28.47z"/><path class="prefix__st8" d="M118.62 235.26c-3.2 0-6.44-.61-9.52-1.86l-.52-.21-.25-.5c-4.42-8.62-8.1-17.89-10.93-27.53l-.17-.59.29-.54c1.14-2.14 2.66-4.08 4.51-5.77 9.12-8.36 23.97-8.36 33.09 0 4.46 4.08 6.92 9.53 6.92 15.33 0 5.81-2.46 11.26-6.92 15.35-4.52 4.15-10.45 6.32-16.5 6.32zm-7.87-4.44c7.61 2.87 16.52 1.25 22.34-4.09 3.84-3.52 5.95-8.18 5.95-13.14 0-4.95-2.11-9.61-5.95-13.12-8.01-7.34-21.03-7.34-29.04 0a18.481 18.481 0 00-3.59 4.44c2.7 9.07 6.16 17.78 10.29 25.91z"/><path class="prefix__st9" d="M161.82 184.29c-3.97 4.95-11.21 5.74-16.16 1.76-13.91-11.16-36.72-11.7-51.49-1.67-1.4-8.32-2.2-16.61-2.51-24.73 22.04-9.51 49.47-6.71 68.38 8.47 4.96 3.97 5.76 11.21 1.78 16.17z"/><path class="prefix__st8" d="M152.85 190.08c-2.85 0-5.73-.93-8.12-2.86-13.16-10.56-35.46-11.28-49.71-1.6l-1.94 1.31-.39-2.31c-1.35-8.08-2.21-16.46-2.53-24.92l-.04-1.03.94-.41c22.99-9.92 51.09-6.43 69.92 8.68 5.59 4.49 6.49 12.69 2 18.27-2.55 3.21-6.32 4.87-10.13 4.87zm-34.08-14.37c10.14 0 20.25 3.08 27.83 9.17 4.3 3.45 10.6 2.76 14.05-1.54a9.929 9.929 0 002.14-7.34 9.927 9.927 0 00-3.68-6.71c-17.73-14.23-44.08-17.65-65.9-8.66.31 7.2 1.01 14.34 2.09 21.26 6.94-4.13 15.22-6.18 23.47-6.18z"/><path class="prefix__st9" d="M181.48 147.79a11.47 11.47 0 01-8.92 4.24c-2.54 0-5.11-.85-7.24-2.58-19.8-16.09-49.13-19.82-73.36-11.18.55-8.67 1.61-16.98 3.04-24.74 7.59-1.76 15.5-2.66 23.58-2.66 23.03 0 44.77 7.37 61.24 20.75 4.91 4.01 5.66 11.25 1.66 16.17z"/><path class="prefix__st8" d="M172.55 153.54c-2.97 0-5.88-1.04-8.19-2.92-18.71-15.2-47.61-19.6-71.91-10.93l-2.14.76.14-2.27c.53-8.39 1.56-16.77 3.06-24.92l.18-.97.96-.22c7.73-1.79 15.78-2.7 23.92-2.7 23.36 0 45.45 7.49 62.19 21.08 2.69 2.19 4.37 5.3 4.73 8.75.36 3.45-.65 6.84-2.84 9.53a12.954 12.954 0 01-10.1 4.81zm-53.84-21.35c17.46 0 34.56 5.56 47.54 16.11a9.956 9.956 0 006.29 2.24c3.03 0 5.86-1.34 7.76-3.69 3.48-4.28 2.83-10.58-1.45-14.06-16.21-13.16-37.62-20.41-60.29-20.41-7.57 0-15.06.81-22.28 2.4a209.6 209.6 0 00-2.68 21.35c8.18-2.65 16.69-3.94 25.11-3.94z"/><path class="prefix__st9" d="M207.01 113.07c-2.9 2.13-5.59 4.24-8.93 4.24-2.54 0-5.11-.84-7.24-2.57-24.58-19.97-58.67-27.63-90.54-22.95 2.08-6.71 8.8-19.52 14.17-27.9 3.36-5.25 9.48-8.08 15.66-7.26 29.56 3.92 58.58 25.08 75.21 40.27 5.5 4.16 8.02 11.5 1.67 16.17z"/><path class="prefix__st8" d="M198.08 118.81c-2.97 0-5.88-1.03-8.19-2.91-23.34-18.96-56.75-27.43-89.38-22.63l-2.36.35.71-2.27c2.19-7.07 9.15-20.17 14.34-28.26 3.66-5.71 10.38-8.83 17.12-7.93 33.25 4.41 64.17 29.83 75.98 40.6 3.75 2.86 5.98 6.82 5.95 10.6-.02 3.1-1.52 5.84-4.35 7.93l-.41.3c-2.82 2.07-5.73 4.22-9.41 4.22zm-79.53-29.85c27.24 0 53.67 8.72 73.24 24.62a9.89 9.89 0 006.29 2.23c2.69 0 4.98-1.69 7.63-3.65l.41-.31c2.06-1.52 3.12-3.38 3.13-5.53.02-2.82-1.83-5.97-4.82-8.23l-.11-.09c-11.56-10.56-41.95-35.59-74.4-39.89-5.58-.75-11.16 1.84-14.2 6.58-4.57 7.12-10.51 18.15-13.21 25.27 5.35-.67 10.72-1 16.04-1z"/><ellipse transform="rotate(-45.001 37.884 101.63)" class="prefix__st4" cx="37.89" cy="101.63" rx=".71" ry=".76"/><ellipse transform="rotate(-45.001 38.827 110.817)" class="prefix__st4" cx="38.83" cy="110.82" rx=".71" ry=".76"/><ellipse transform="rotate(-45.001 52.032 103.097)" class="prefix__st4" cx="52.03" cy="103.1" rx=".71" ry=".76"/><ellipse transform="rotate(-45.001 46.338 97.892)" class="prefix__st4" cx="46.34" cy="97.89" rx=".71" ry=".76"/><ellipse transform="rotate(-45.001 49.587 90.486)" class="prefix__st4" cx="49.59" cy="90.48" rx=".71" ry=".76"/><ellipse transform="rotate(-45.001 64.574 94.993)" class="prefix__st4" cx="64.57" cy="94.99" rx=".71" ry=".76"/><ellipse transform="rotate(-45.001 57.307 93.665)" class="prefix__st4" cx="57.31" cy="93.66" rx=".71" ry=".76"/><ellipse transform="rotate(-45.001 72.364 81.159)" class="prefix__st4" cx="72.36" cy="81.16" rx=".71" ry=".76"/><ellipse transform="rotate(-45.001 59.823 85.735)" class="prefix__st4" cx="59.82" cy="85.73" rx=".71" ry=".76"/><ellipse transform="rotate(-45.001 88.783 86.923)" class="prefix__st4" cx="88.78" cy="86.92" rx=".71" ry=".76"/><ellipse transform="rotate(-45.001 128.783 72.96)" class="prefix__st4" cx="128.78" cy="72.96" rx=".71" ry=".76"/><ellipse transform="rotate(-45.001 142.757 69.047)" class="prefix__st4" cx="142.76" cy="69.05" rx=".71" ry=".76"/><ellipse transform="rotate(-45.001 140.8 78.55)" class="prefix__st4" cx="140.8" cy="78.55" rx=".71" ry=".76"/><ellipse transform="rotate(-45.001 141.08 84.977)" class="prefix__st4" cx="141.08" cy="84.98" rx=".71" ry=".76"/><ellipse transform="rotate(-45.001 156.032 76.453)" class="prefix__st4" cx="156.03" cy="76.45" rx=".71" ry=".76"/><ellipse transform="rotate(-45.001 153.097 85.955)" class="prefix__st4" cx="153.1" cy="85.95" rx=".71" ry=".76"/><ellipse transform="rotate(-45.001 171.542 79.528)" class="prefix__st4" cx="171.54" cy="79.53" rx=".71" ry=".76"/><ellipse transform="rotate(-45.001 163.647 84.07)" class="prefix__st4" cx="163.65" cy="84.07" rx=".71" ry=".76"/><ellipse transform="rotate(-45.001 167.28 93.012)" class="prefix__st4" cx="167.28" cy="93.01" rx=".71" ry=".76"/><ellipse transform="rotate(-45.001 182.372 88.96)" class="prefix__st4" cx="182.37" cy="88.96" rx=".71" ry=".76"/><ellipse transform="rotate(-45.001 183.07 100.698)" class="prefix__st4" cx="183.07" cy="100.7" rx=".71" ry=".76"/><ellipse transform="rotate(-45.001 180.415 93.99)" class="prefix__st4" cx="180.42" cy="93.99" rx=".71" ry=".76"/><ellipse transform="rotate(-45.001 80.818 83.919)" class="prefix__st4" cx="80.82" cy="83.92" rx=".71" ry=".76"/><ellipse transform="rotate(-45.001 85.36 75.255)" class="prefix__st4" cx="85.36" cy="75.25" rx=".71" ry=".76"/><ellipse transform="rotate(-45.001 90.67 80.845)" class="prefix__st4" cx="90.67" cy="80.84" rx=".71" ry=".76"/><ellipse transform="rotate(-45.001 117.385 79.747)" class="prefix__st4" cx="117.39" cy="79.75" rx=".71" ry=".76"/><ellipse transform="rotate(-45.001 125.14 64.865)" class="prefix__st4" cx="125.14" cy="64.86" rx=".71" ry=".76"/><ellipse transform="rotate(-45.001 98.914 74.696)" class="prefix__st4" cx="98.91" cy="74.69" rx=".71" ry=".76"/><ellipse transform="rotate(-45.001 96.329 88.041)" class="prefix__st4" cx="96.33" cy="88.04" rx=".71" ry=".76"/><ellipse transform="rotate(-45.001 128.364 84.069)" class="prefix__st4" cx="128.36" cy="84.07" rx=".71" ry=".76"/><ellipse transform="rotate(-45.001 77.255 91.464)" class="prefix__st4" cx="77.26" cy="91.46" rx=".71" ry=".76"/><ellipse transform="rotate(-45.001 72.015 87.692)" class="prefix__st4" cx="72.02" cy="87.69" rx=".71" ry=".76"/><ellipse transform="rotate(-34.55 62.695 135.219)" class="prefix__st4" cx="62.7" cy="135.22" rx=".71" ry=".76"/><ellipse transform="rotate(-34.55 61.955 144.425)" class="prefix__st4" cx="61.96" cy="144.42" rx=".71" ry=".76"/><ellipse transform="rotate(-34.55 76.342 139.228)" class="prefix__st4" cx="76.34" cy="139.23" rx=".71" ry=".76"/><ellipse transform="rotate(-34.55 71.686 133.077)" class="prefix__st4" cx="71.69" cy="133.08" rx=".71" ry=".76"/><ellipse transform="rotate(-34.55 76.225 126.383)" class="prefix__st4" cx="76.23" cy="126.38" rx=".71" ry=".76"/><ellipse transform="rotate(-34.55 88.189 134.092)" class="prefix__st4" cx="88.19" cy="134.09" rx=".71" ry=".76"/><ellipse transform="rotate(-34.55 83.24 130.91)" class="prefix__st4" cx="83.24" cy="130.91" rx=".71" ry=".76"/><ellipse transform="rotate(-34.55 100.316 121.343)" class="prefix__st4" cx="100.32" cy="121.34" rx=".71" ry=".76"/><ellipse transform="rotate(-34.55 87.152 123.568)" class="prefix__st4" cx="87.15" cy="123.57" rx=".71" ry=".76"/><ellipse transform="rotate(-34.55 117.652 130.13)" class="prefix__st4" cx="117.65" cy="130.13" rx=".71" ry=".76"/><ellipse transform="rotate(-34.55 108.18 115.991)" class="prefix__st4" cx="108.18" cy="115.99" rx=".71" ry=".76"/><ellipse transform="rotate(-34.55 122.284 115.089)" class="prefix__st4" cx="122.29" cy="115.09" rx=".71" ry=".76"/><ellipse transform="rotate(-34.55 132.195 129.697)" class="prefix__st4" cx="132.2" cy="129.7" rx=".71" ry=".76"/><ellipse transform="rotate(-34.55 147.026 133.458)" class="prefix__st4" cx="147.03" cy="133.46" rx=".71" ry=".76"/><ellipse transform="rotate(-34.55 128.572 122.635)" class="prefix__st4" cx="128.57" cy="122.63" rx=".71" ry=".76"/><ellipse transform="rotate(-34.55 166.322 140.26)" class="prefix__st4" cx="166.33" cy="140.26" rx=".71" ry=".76"/><ellipse transform="rotate(-34.55 158.056 125.989)" class="prefix__st4" cx="158.06" cy="125.99" rx=".71" ry=".76"/><ellipse transform="rotate(-34.55 156.938 136.469)" class="prefix__st4" cx="156.94" cy="136.47" rx=".71" ry=".76"/><ellipse transform="rotate(-34.55 175.662 138.006)" class="prefix__st4" cx="175.66" cy="138" rx=".71" ry=".76"/><ellipse transform="rotate(-34.55 143.663 121.517)" class="prefix__st4" cx="143.67" cy="121.52" rx=".71" ry=".76"/><ellipse transform="rotate(-34.55 112.922 124.032)" class="prefix__st4" cx="112.92" cy="124.03" rx=".71" ry=".76"/><ellipse transform="rotate(-34.55 98.799 130.955)" class="prefix__st4" cx="98.8" cy="130.95" rx=".71" ry=".76"/><ellipse transform="rotate(-34.55 82.955 171.27)" class="prefix__st4" cx="82.96" cy="171.27" rx=".71" ry=".76"/><ellipse transform="rotate(-34.55 82.216 180.477)" class="prefix__st4" cx="82.22" cy="180.48" rx=".71" ry=".76"/><ellipse transform="rotate(-34.55 96.602 175.28)" class="prefix__st4" cx="96.61" cy="175.28" rx=".71" ry=".76"/><ellipse transform="rotate(-34.55 107.362 206.86)" class="prefix__st4" cx="107.36" cy="206.86" rx=".71" ry=".76"/><ellipse transform="rotate(-34.55 100.484 217.374)" class="prefix__st4" cx="100.49" cy="217.37" rx=".71" ry=".76"/><ellipse transform="rotate(-34.55 88.198 176.496)" class="prefix__st4" cx="88.2" cy="176.5" rx=".71" ry=".76"/><ellipse transform="rotate(-34.55 96.486 162.435)" class="prefix__st4" cx="96.49" cy="162.43" rx=".71" ry=".76"/><ellipse transform="rotate(-34.55 110.406 169.585)" class="prefix__st4" cx="110.41" cy="169.58" rx=".71" ry=".76"/><ellipse transform="rotate(-34.55 103.501 166.961)" class="prefix__st4" cx="103.5" cy="166.96" rx=".71" ry=".76"/><ellipse transform="rotate(-34.55 120.576 157.394)" class="prefix__st4" cx="120.58" cy="157.39" rx=".71" ry=".76"/><ellipse transform="rotate(-34.55 107.413 159.62)" class="prefix__st4" cx="107.42" cy="159.62" rx=".71" ry=".76"/><ellipse transform="rotate(-34.55 132.323 167.299)" class="prefix__st4" cx="132.33" cy="167.3" rx=".71" ry=".76"/><g><ellipse transform="rotate(-34.55 126.078 201.883)" class="prefix__st4" cx="126.08" cy="201.88" rx=".71" ry=".76"/></g><g><ellipse transform="rotate(-34.55 128.39 161.642)" class="prefix__st4" cx="128.39" cy="161.64" rx=".71" ry=".76"/></g><g><ellipse transform="rotate(-34.55 148.413 180.764)" class="prefix__st4" cx="148.42" cy="180.76" rx=".71" ry=".76"/></g><g><ellipse transform="rotate(-34.55 133.331 215.761)" class="prefix__st4" cx="133.33" cy="215.76" rx=".71" ry=".76"/></g><g><ellipse transform="rotate(-34.55 128.291 208.152)" class="prefix__st4" cx="128.29" cy="208.15" rx=".71" ry=".76"/></g><g><ellipse transform="rotate(-34.55 116.414 223.942)" class="prefix__st4" cx="116.42" cy="223.94" rx=".71" ry=".76"/></g><g><ellipse transform="rotate(-34.55 110.265 218.771)" class="prefix__st4" cx="110.27" cy="218.77" rx=".71" ry=".76"/></g><g><ellipse transform="rotate(-34.55 136.107 175.67)" class="prefix__st4" cx="136.11" cy="175.67" rx=".71" ry=".76"/></g><g><ellipse transform="rotate(-34.55 138.635 160.406)" class="prefix__st4" cx="138.64" cy="160.4" rx=".71" ry=".76"/></g><g><ellipse transform="rotate(-34.55 152.186 174.057)" class="prefix__st4" cx="152.19" cy="174.06" rx=".71" ry=".76"/></g><g><ellipse transform="rotate(-34.55 115.017 212.204)" class="prefix__st4" cx="115.02" cy="212.2" rx=".71" ry=".76"/></g><g><ellipse transform="rotate(-34.55 126.614 227.715)" class="prefix__st4" cx="126.62" cy="227.71" rx=".71" ry=".76"/></g><g><ellipse transform="rotate(-34.55 159.871 178.808)" class="prefix__st4" cx="159.87" cy="178.81" rx=".71" ry=".76"/></g><g><ellipse transform="rotate(-34.55 145.758 167.909)" class="prefix__st4" cx="145.76" cy="167.91" rx=".71" ry=".76"/></g><g><ellipse transform="rotate(-34.55 123.516 168.416)" class="prefix__st4" cx="123.52" cy="168.41" rx=".71" ry=".76"/></g><g><ellipse transform="rotate(-34.55 115.715 200.746)" class="prefix__st4" cx="115.72" cy="200.75" rx=".71" ry=".76"/></g><g><ellipse transform="rotate(-34.55 124.798 218.073)" class="prefix__st4" cx="124.8" cy="218.07" rx=".71" ry=".76"/></g><g><ellipse transform="rotate(-34.55 119.048 163.755)" class="prefix__st4" cx="119.05" cy="163.75" rx=".71" ry=".76"/></g></svg>